<svg width="24" height="24" viewBox="0 0 24 24" fill="none" xmlns="http://www.w3.org/2000/svg">
<path d="M13.6071 5.28084L20.6786 12.0308C20.8795 12.2317 21 12.4728 21 12.7541C21 12.9951 20.8795 13.2362 20.6786 13.4371L13.6071 20.1871C13.2455 20.5487 12.6027 20.5487 12.2411 20.1469C11.8795 19.7853 11.8795 19.1424 12.2813 18.7808L17.625 13.7183H3.96429C3.40179 13.7183 3 13.2764 3 12.7541C3 12.1916 3.40179 11.7898 3.96429 11.7898H17.625L12.2813 6.68709C11.8795 6.32548 11.8795 5.68262 12.2411 5.32102C12.6027 4.91923 13.2054 4.91923 13.6071 5.28084Z" fill="white"/>
</svg>
