<svg width="24" height="24" viewBox="0 0 24 24" fill="none" xmlns="http://www.w3.org/2000/svg">
<path d="M19.2066 10.3691L12.4415 3.28188C12.2401 3.08054 11.9985 3 11.7569 3C11.475 3 11.2334 3.08054 11.0321 3.28188L4.26698 10.3691C3.90456 10.7718 3.90456 11.3758 4.30725 11.7383C4.66966 12.1007 5.31396 12.1007 5.67637 11.698L10.7905 6.34228V20.0336C10.7905 20.5973 11.1932 21 11.7166 21C12.1999 21 12.7234 20.5973 12.7234 20.0336V6.34228L17.7972 11.698C18.1596 12.1007 18.8039 12.1007 19.1663 11.7383C19.569 11.3758 19.569 10.7718 19.2066 10.3691Z" fill="white"/>
</svg>
