<svg width="24" height="24" viewBox="0 0 24 24" fill="none" xmlns="http://www.w3.org/2000/svg">
  <!-- Glass arrow, ink — for yellow sections. Same construction as the
       yellow variant: gradient body, extrusion below, specular above. -->
  <defs>
    <linearGradient id="body" x1="12" y1="4" x2="12" y2="21" gradientUnits="userSpaceOnUse">
      <stop offset="0" stop-color="#56503A"/>
      <stop offset="0.45" stop-color="#2B2710"/>
      <stop offset="1" stop-color="#141200"/>
    </linearGradient>
    <linearGradient id="spec" x1="12" y1="4" x2="12" y2="13" gradientUnits="userSpaceOnUse">
      <stop offset="0" stop-color="#FFFFFF" stop-opacity="0.55"/>
      <stop offset="1" stop-color="#FFFFFF" stop-opacity="0"/>
    </linearGradient>
    <clipPath id="shape">
      <path d="M13.6071 5.28084L20.6786 12.0308C20.8795 12.2317 21 12.4728 21 12.7541C21 12.9951 20.8795 13.2362 20.6786 13.4371L13.6071 20.1871C13.2455 20.5487 12.6027 20.5487 12.2411 20.1469C11.8795 19.7853 11.8795 19.1424 12.2813 18.7808L17.625 13.7183H3.96429C3.40179 13.7183 3 13.2764 3 12.7541C3 12.1916 3.40179 11.7898 3.96429 11.7898H17.625L12.2813 6.68709C11.8795 6.32548 11.8795 5.68262 12.2411 5.32102C12.6027 4.91923 13.2054 4.91923 13.6071 5.28084Z"/>
    </clipPath>
  </defs>
  <!-- extrusion: a darker seat in the yellow field -->
  <path transform="translate(0 1.1)" d="M13.6071 5.28084L20.6786 12.0308C20.8795 12.2317 21 12.4728 21 12.7541C21 12.9951 20.8795 13.2362 20.6786 13.4371L13.6071 20.1871C13.2455 20.5487 12.6027 20.5487 12.2411 20.1469C11.8795 19.7853 11.8795 19.1424 12.2813 18.7808L17.625 13.7183H3.96429C3.40179 13.7183 3 13.2764 3 12.7541C3 12.1916 3.40179 11.7898 3.96429 11.7898H17.625L12.2813 6.68709C11.8795 6.32548 11.8795 5.68262 12.2411 5.32102C12.6027 4.91923 13.2054 4.91923 13.6071 5.28084Z" fill="#9C8A00"/>
  <!-- glass body -->
  <path d="M13.6071 5.28084L20.6786 12.0308C20.8795 12.2317 21 12.4728 21 12.7541C21 12.9951 20.8795 13.2362 20.6786 13.4371L13.6071 20.1871C13.2455 20.5487 12.6027 20.5487 12.2411 20.1469C11.8795 19.7853 11.8795 19.1424 12.2813 18.7808L17.625 13.7183H3.96429C3.40179 13.7183 3 13.2764 3 12.7541C3 12.1916 3.40179 11.7898 3.96429 11.7898H17.625L12.2813 6.68709C11.8795 6.32548 11.8795 5.68262 12.2411 5.32102C12.6027 4.91923 13.2054 4.91923 13.6071 5.28084Z" fill="url(#body)"/>
  <!-- specular band clipped to the shape -->
  <rect x="2" y="4" width="20" height="6.5" clip-path="url(#shape)" fill="url(#spec)"/>
</svg>
