<svg width="24" height="24" viewBox="0 0 24 24" fill="none" xmlns="http://www.w3.org/2000/svg">
<path d="M19.2066 13.6309L12.4415 20.7181C12.2401 20.9195 11.9985 21 11.7569 21C11.475 21 11.2334 20.9195 11.0321 20.7181L4.26698 13.6309C3.90456 13.2282 3.90456 12.6242 4.30725 12.2617C4.66966 11.8993 5.31396 11.8993 5.67637 12.302L10.7905 17.6577V3.96644C10.7905 3.40268 11.1932 3 11.7166 3C12.1999 3 12.7234 3.40268 12.7234 3.96644V17.6577L17.7972 12.302C18.1596 11.8993 18.8039 11.8993 19.1663 12.2617C19.569 12.6242 19.569 13.2282 19.2066 13.6309Z" fill="white"/>
</svg>
