<svg width="24" height="24" viewBox="0 0 24 24" fill="none" xmlns="http://www.w3.org/2000/svg">
<circle cx="12" cy="12" r="12" fill="#1E1E1E"/>
<path fill-rule="evenodd" clip-rule="evenodd" d="M12.0009 5.125C10.275 5.125 8.87585 6.52411 8.87585 8.25C8.87585 9.97589 10.275 11.375 12.0009 11.375C13.7267 11.375 15.1259 9.97589 15.1259 8.25C15.1259 6.52411 13.7267 5.125 12.0009 5.125ZM7.62585 8.25C7.62585 5.83375 9.58461 3.875 12.0009 3.875C14.4171 3.875 16.3759 5.83375 16.3759 8.25C16.3759 10.6662 14.4171 12.625 12.0009 12.625C9.58461 12.625 7.62585 10.6662 7.62585 8.25Z" fill="#525252"/>
<path fill-rule="evenodd" clip-rule="evenodd" d="M4.93335 19.5C4.93335 16.1385 8.22679 13.625 12.0008 13.625C15.7749 13.625 19.0683 16.1385 19.0683 19.5C19.0683 19.8452 18.7885 20.125 18.4433 20.125C18.0982 20.125 17.8183 19.8452 17.8183 19.5C17.8183 17.0565 15.3368 14.875 12.0008 14.875C8.66491 14.875 6.18335 17.0565 6.18335 19.5C6.18335 19.8452 5.90353 20.125 5.55835 20.125C5.21317 20.125 4.93335 19.8452 4.93335 19.5Z" fill="#525252"/>
</svg>
