<svg width="24" height="24" viewBox="0 0 24 24" fill="none" xmlns="http://www.w3.org/2000/svg">
<path d="M11.8301 2C12.38 2.00004 12.8301 2.45003 12.8301 3C12.8301 3.54997 12.38 3.99996 11.8301 4H7.96973C7.15994 4.00015 6.50015 4.65994 6.5 5.46973V18.3799C6.5 18.5299 6.67027 18.6098 6.78027 18.5098L11.3301 14.4502C11.5201 14.2802 11.76 14.2002 12 14.2002C12.24 14.2002 12.4799 14.2802 12.6699 14.4502L17.2197 18.5195C17.3297 18.6095 17.5 18.5396 17.5 18.3896V12.3301H17.5098C17.5098 11.7802 17.9599 11.3302 18.5098 11.3301C19.0598 11.3301 19.5098 11.7801 19.5098 12.3301V19.8799C19.5098 20.4698 19.1601 21.01 18.6201 21.25C18.0801 21.49 17.4498 21.39 17.0098 21L12.3203 16.8096C12.1405 16.6497 11.8704 16.65 11.6904 16.8096L7 21C6.72 21.25 6.36 21.3799 6 21.3799C5.79 21.3799 5.58965 21.34 5.38965 21.25C4.84982 21.0099 4.5 20.4698 4.5 19.8799V5.46973C4.50015 3.54994 6.04994 2.00015 7.96973 2H11.8301ZM18.6299 2C19.1299 2 19.54 2.41016 19.54 2.91016V4.53027H21.1602C21.6601 4.53036 22.0703 4.94048 22.0703 5.44043C22.0701 5.94018 21.6599 6.34953 21.1602 6.34961H19.54V7.96973C19.54 8.46973 19.1299 8.87988 18.6299 8.87988C18.1299 8.87982 17.7197 8.46969 17.7197 7.96973V6.34961H16.0996C15.5999 6.34939 15.1907 5.9401 15.1904 5.44043C15.1904 4.94056 15.5998 4.53049 16.0996 4.53027H17.7197V2.91016C17.7197 2.4102 18.1299 2.00007 18.6299 2Z" fill="white"/>
</svg>
