<svg width="24" height="24" viewBox="0 0 24 24" fill="none" xmlns="http://www.w3.org/2000/svg">
<path fill-rule="evenodd" clip-rule="evenodd" d="M4.1868 4.1868C4.63591 3.7377 5.36405 3.7377 5.81315 4.1868L12 10.3736L18.1868 4.18681C18.6359 3.7377 19.364 3.7377 19.8131 4.18681C20.2623 4.63591 20.2623 5.36405 19.8131 5.81315L13.6263 12L19.8131 18.1868C20.2623 18.6359 20.2623 19.364 19.8131 19.8131C19.364 20.2622 18.6359 20.2622 18.1868 19.8131L12 13.6263L5.81315 19.8131C5.36405 20.2623 4.63591 20.2623 4.1868 19.8131C3.7377 19.364 3.7377 18.6359 4.1868 18.1868L10.3736 12L4.1868 5.81315C3.7377 5.36405 3.7377 4.63591 4.1868 4.1868Z" fill="white"/>
</svg>
