<svg width="24" height="24" viewBox="0 0 24 24" fill="none" xmlns="http://www.w3.org/2000/svg">
<g clip-path="url(#clip0_891_2718)">
<path d="M3.49768 14.8174C4.273 14.8175 4.90393 15.4483 4.90393 16.2236V22.5938C4.90392 23.3691 4.27299 23.9999 3.49768 24H0.932251C0.156849 24 -0.473993 23.3692 -0.473999 22.5938V16.2236C-0.473999 15.4482 0.156845 14.8174 0.932251 14.8174H3.49768ZM15.0377 15.5488C16.3947 14.7238 18.6319 13.6267 19.9235 14.5586C20.2775 14.8142 20.4475 15.3377 20.4733 16.2549C20.4938 16.9839 20.2591 17.6674 19.7516 18.2764L16.9264 21.5049C15.9432 22.6431 14.5097 23.2969 13.0319 23.2969C12.5974 23.2967 7.34024 22.8672 7.22327 22.8672C7.09693 22.8503 6.42435 22.8447 6.29749 22.8564C6.2927 22.8564 6.31018 22.7918 6.31018 22.5938V16.6279H6.62952C6.96126 16.6279 7.19182 16.5059 7.18713 16.5059C7.74668 16.205 7.57743 16.1262 9.17932 15.9219C9.89346 15.831 10.313 16.0321 10.5905 16.165C11.1056 16.4119 11.6664 16.4998 12.2115 16.4189L14.0446 16.1436C14.1182 16.3562 14.3045 17.2611 13.7916 17.4756C13.0468 17.7866 13.0466 17.7868 9.8678 18.2998C9.55364 18.3505 9.33874 18.6519 9.38831 18.9727C9.43785 19.2925 9.73202 19.5126 10.0475 19.4619C13.2968 18.9374 13.3593 18.9273 14.2281 18.5645C15.5768 18.0009 15.3854 16.1514 15.0377 15.5488ZM11.526 0C15.2221 3.87943e-07 18.2291 3.00698 18.2291 6.70312C18.2291 10.3993 15.2221 13.4062 11.526 13.4062C7.82991 13.4062 4.82288 10.3993 4.82288 6.70312C4.82288 3.00698 7.82986 0 11.526 0ZM11.5328 2.63477C11.1447 2.63477 10.8299 2.94976 10.8297 3.33789V3.49219C9.4678 3.95128 9.13798 5.80005 10.1617 6.60352C10.6157 6.95948 11.2611 7.21415 11.8903 7.43652C12.3085 7.58439 12.3503 7.88618 12.3121 8.11328C12.2585 8.43231 11.9906 8.77712 11.528 8.78027C11.011 8.78463 10.8757 8.76292 10.4918 8.51172C10.167 8.29924 9.73185 8.3901 9.51917 8.71484C9.30659 9.03983 9.39731 9.47599 9.72229 9.68848C10.143 9.96367 10.4639 10.0916 10.8287 10.1475V10.2715C10.8288 10.6596 11.1438 10.9744 11.5319 10.9746C11.9201 10.9746 12.2349 10.6597 12.235 10.2715V10.0723C13.0541 9.79712 13.5787 9.06717 13.6998 8.34668C13.867 7.35211 13.3278 6.45398 12.359 6.11133C11.8676 5.93761 11.325 5.72853 11.0299 5.49707C10.9036 5.39816 10.9593 4.92016 11.2906 4.82031C11.8916 4.63938 12.1624 4.97583 12.3971 5.09863C12.7412 5.27828 13.1655 5.14482 13.3453 4.80078C13.5209 4.46502 13.3986 4.05217 13.0729 3.86523C12.8127 3.68861 12.59 3.54682 12.236 3.44727V3.33789C12.2357 2.9499 11.9208 2.63499 11.5328 2.63477Z" fill="white"/>
</g>
<defs>
<clipPath id="clip0_891_2718">
<rect width="24" height="24" fill="white"/>
</clipPath>
</defs>
</svg>
