<svg xmlns="http://www.w3.org/2000/svg" viewBox="0 0 24 24" fill="none">
  <path d="M2.6 7.4 6.7 11l4.3-6.4a1.2 1.2 0 0 1 2 0L17.3 11l4.1-3.6c.8-.7 2 .1 1.7 1.1l-2.3 9.1a1 1 0 0 1-1 .8H4.2a1 1 0 0 1-1-.8L.9 8.5c-.3-1 .9-1.8 1.7-1.1Z" fill="#FFD15C"/>
  <path d="M3.6 16.4h16.8l-.35 1.4a1 1 0 0 1-1 .8H4.95a1 1 0 0 1-1-.8L3.6 16.4Z" fill="#F5A623"/>
  <circle cx="2.4" cy="7" r="1.7" fill="#FFE7A0"/>
  <circle cx="21.6" cy="7" r="1.7" fill="#FFE7A0"/>
  <circle cx="12" cy="3.6" r="1.8" fill="#FFE7A0"/>
</svg>
