<svg width="24" height="24" viewBox="0 0 24 24" fill="none" xmlns="http://www.w3.org/2000/svg">
<path d="M20.84 4.61C20.3292 4.099 19.7228 3.69364 19.0554 3.41708C18.388 3.14052 17.6726 2.99818 16.95 2.99818C16.2274 2.99818 15.512 3.14052 14.8446 3.41708C14.1772 3.69364 13.5708 4.099 13.06 4.61L12 5.67L10.94 4.61C9.90842 3.57843 8.50915 2.99871 7.05 2.99871C5.59085 2.99871 4.19158 3.57843 3.16 4.61C2.12842 5.64158 1.54871 7.04085 1.54871 8.5C1.54871 9.95915 2.12842 11.3584 3.16 12.39L4.22 13.45L12 21.23L19.78 13.45L20.84 12.39C21.351 11.8792 21.7564 11.2728 22.0329 10.6054C22.3095 9.93801 22.4518 9.22265 22.4518 8.5C22.4518 7.77736 22.3095 7.062 22.0329 6.39458C21.7564 5.72717 21.351 5.12081 20.84 4.61Z" stroke="currentColor" stroke-width="1.8" stroke-linecap="round" stroke-linejoin="round"/>
</svg>
