<svg width="24" height="24" viewBox="0 0 24 24" fill="none" xmlns="http://www.w3.org/2000/svg">
<path fill-rule="evenodd" clip-rule="evenodd" d="M12 4C7.58172 4 4 7.58172 4 12C4 16.4183 7.58172 20 12 20C16.4183 20 20 16.4183 20 12C20 7.58172 16.4183 4 12 4ZM2 12C2 6.47715 6.47715 2 12 2C17.5228 2 22 6.47715 22 12C22 17.5228 17.5228 22 12 22C6.47715 22 2 17.5228 2 12ZM12 7.42087C12.5523 7.42087 13 7.86858 13 8.42087V12.4042L15.6912 13.3013C16.2152 13.476 16.4983 14.0423 16.3237 14.5662C16.149 15.0902 15.5827 15.3733 15.0588 15.1987L11.6838 14.0737C11.2754 13.9376 11 13.5554 11 13.125V8.42087C11 7.86858 11.4477 7.42087 12 7.42087Z" fill="white"/>
</svg>
