<svg width="24" height="24" viewBox="0 0 24 24" fill="none" xmlns="http://www.w3.org/2000/svg">
<path d="M12.0068 1C14.9946 1 15.3689 1.01249 16.5469 1.06836C17.7162 1.11995 18.516 1.30934 19.2168 1.58008C19.9389 1.85939 20.5537 2.23757 21.1641 2.84766C21.7789 3.45793 22.153 4.0731 22.4238 4.80371C22.6947 5.4999 22.884 6.30378 22.9355 7.47266C22.9871 8.6457 23 9.02018 23 12.0068C23 14.9934 22.9871 15.3678 22.9355 16.541C22.8839 17.7095 22.6946 18.5086 22.4238 19.209C22.1444 19.931 21.7658 20.546 21.1553 21.1562C20.5448 21.7664 19.9302 22.1445 19.208 22.4238C18.5115 22.6946 17.7075 22.884 16.5381 22.9355C15.3644 22.9871 14.99 23 12.002 23C9.01405 23 8.63953 22.9871 7.46582 22.9355C6.29664 22.8839 5.49661 22.6945 4.7959 22.4238C4.07382 22.1445 3.45901 21.7664 2.84863 21.1562C2.23386 20.546 1.85992 19.9314 1.57617 19.2051C1.30531 18.5089 1.11605 17.7051 1.06445 16.5361C1.01286 15.3629 1 14.9888 1 12.002C1 9.01531 1.01287 8.64133 1.06445 7.46387C1.11605 6.2949 1.30531 5.49545 1.57617 4.79492C1.85993 4.07291 2.23382 3.45793 2.84863 2.84766C3.4591 2.23316 4.07423 1.8598 4.80078 1.57617C5.49728 1.30542 6.30127 1.11603 7.4707 1.06445C8.64435 1.01288 9.01885 1 12.0068 1ZM12.0068 2.98145C9.06605 2.98145 8.71708 2.99433 7.56055 3.0459C6.49021 3.0932 5.90546 3.27342 5.51855 3.42383C5.00696 3.62152 4.64181 3.85834 4.25488 4.24512C3.87227 4.6276 3.63136 4.99738 3.43359 5.50879C3.28314 5.89558 3.10197 6.47572 3.05469 7.5498C3.0031 8.70575 2.99024 9.05398 2.99023 11.9932C2.99023 14.9285 3.00309 15.2771 3.05469 16.4375C3.10198 17.5074 3.28314 18.0917 3.43359 18.4785C3.63137 18.9899 3.86794 19.3554 4.25488 19.7422C4.63751 20.1247 5.00695 20.3658 5.51855 20.5635C5.90546 20.7139 6.48591 20.8941 7.56055 20.9414C8.71708 20.993 9.06605 21.0059 12.0068 21.0059C14.943 21.0059 15.2914 20.993 16.4521 20.9414C17.5225 20.8941 18.1072 20.7139 18.4941 20.5635C19.0057 20.3658 19.3709 20.1289 19.7578 19.7422C20.1405 19.3597 20.3813 18.9899 20.5791 18.4785C20.7296 18.0917 20.9107 17.5117 20.958 16.4375C21.0096 15.2814 21.0225 14.9328 21.0225 11.9932C21.0225 9.05827 21.0096 8.71006 20.958 7.5498C20.9107 6.47996 20.7296 5.89559 20.5791 5.50879C20.3813 4.99736 20.1448 4.63191 19.7578 4.24512C19.3752 3.86265 19.0057 3.62151 18.4941 3.42383C18.1072 3.27342 17.5268 3.09318 16.4521 3.0459C15.2957 2.99433 14.9473 2.98145 12.0068 2.98145ZM12.0068 6.35059C15.1279 6.3508 17.6601 8.88203 17.6602 12.002C17.6602 15.122 15.128 17.6531 12.0068 17.6533C8.88548 17.6533 6.35254 15.1221 6.35254 12.002C6.35265 8.8819 8.88554 6.35059 12.0068 6.35059ZM12.0068 8.33594C9.98189 8.33594 8.33897 9.97782 8.33887 12.002C8.33887 14.0262 9.98182 15.668 12.0068 15.668C14.0317 15.6678 15.6738 14.026 15.6738 12.002C15.6737 9.97795 14.0316 8.33615 12.0068 8.33594ZM17.8838 4.80762C18.6103 4.80766 19.204 5.40075 19.2041 6.12695C19.2041 6.85754 18.6104 7.44625 17.8838 7.44629C17.1529 7.44629 16.5635 6.85327 16.5635 6.12695C16.5636 5.39643 17.1573 4.80762 17.8838 4.80762Z" fill="white"/>
</svg>
