<svg width="24" height="24" viewBox="0 0 24 24" fill="none" xmlns="http://www.w3.org/2000/svg">
<path d="M12 3C16.9747 3 21 7.02578 21 12C21 16.9747 16.9743 21 12 21C7.02525 21 3 16.9742 3 12C3 7.02525 7.02571 3 12 3ZM12 4.25586C7.72985 4.25586 4.25586 7.72982 4.25586 12C4.25586 16.2702 7.72985 19.7441 12 19.7441C16.2701 19.7441 19.7441 16.2702 19.7441 12C19.7441 7.72982 16.2701 4.25586 12 4.25586ZM12 10.502C12.5092 10.502 12.9235 10.7272 12.9238 11.0586V15.5723C12.9238 15.8566 12.5094 16.1416 12 16.1416C11.467 16.1415 11.0879 15.8566 11.0879 15.5723V11.0596C11.0879 10.7279 11.467 10.502 12 10.502ZM12 7.71777C12.5331 7.71777 12.96 8.10939 12.96 8.55957C12.9598 9.00969 12.533 9.41211 12 9.41211C11.4553 9.41201 11.0294 9.00963 11.0293 8.55957C11.0293 8.10945 11.4551 7.71787 12 7.71777Z" fill="white"/>
</svg>
