<svg width="24" height="24" viewBox="0 0 24 24" fill="none" xmlns="http://www.w3.org/2000/svg">
<path d="M12 2C17.5078 2 22 6.49219 22 12C22 17.5469 17.5078 22 12 22C6.45312 22 2 17.5469 2 12C2 6.49219 6.45312 2 12 2ZM12 20.125C12.2734 20.125 13.0156 19.8516 13.8359 18.25C14.1875 17.5469 14.4609 16.7266 14.6953 15.75H9.26562C9.5 16.7266 9.77344 17.5469 10.125 18.25C10.9453 19.8516 11.6875 20.125 12 20.125ZM8.95312 13.875H15.0078C15.0859 13.2891 15.125 12.6641 15.125 12C15.125 11.375 15.0859 10.75 15.0078 10.125H8.95312C8.875 10.75 8.875 11.375 8.875 12C8.875 12.6641 8.875 13.2891 8.95312 13.875ZM14.6953 8.25C14.4609 7.3125 14.1875 6.49219 13.8359 5.78906C13.0156 4.1875 12.2734 3.875 12 3.875C11.6875 3.875 10.9453 4.1875 10.125 5.78906C9.77344 6.49219 9.5 7.3125 9.26562 8.25H14.6953ZM16.8828 10.125C16.9609 10.75 17 11.375 17 12C17 12.6641 16.9609 13.2891 16.8828 13.875H19.8906C20.0469 13.2891 20.125 12.6641 20.125 12C20.125 11.375 20.0469 10.75 19.8906 10.125H16.8828ZM15.3594 4.61719C15.9062 5.63281 16.3359 6.88281 16.6094 8.25H19.1875C18.3672 6.64844 17 5.35938 15.3594 4.61719ZM8.60156 4.61719C6.96094 5.35938 5.59375 6.64844 4.77344 8.25H7.35156C7.625 6.88281 8.05469 5.63281 8.60156 4.61719ZM3.875 12C3.875 12.6641 3.91406 13.2891 4.07031 13.875H7.07812C7 13.2891 7 12.6641 7 12C7 11.375 7 10.75 7.07812 10.125H4.07031C3.91406 10.75 3.875 11.375 3.875 12ZM19.1875 15.75H16.6094C16.3359 17.1562 15.9062 18.4062 15.3594 19.4219C17 18.6797 18.3672 17.3906 19.1875 15.75ZM7.35156 15.75H4.77344C5.59375 17.3906 6.96094 18.6797 8.60156 19.4219C8.05469 18.4062 7.625 17.1562 7.35156 15.75Z" fill="white"/>
</svg>
