<svg width="24" height="24" viewBox="0 0 24 24" fill="none" xmlns="http://www.w3.org/2000/svg">
<path fill-rule="evenodd" clip-rule="evenodd" d="M6.65116 2.69767C6.65116 2.31236 6.96352 2 7.34884 2H16.6512C17.0365 2 17.3488 2.31236 17.3488 2.69767C17.3488 3.08299 17.0365 3.39535 16.6512 3.39535H7.34884C6.96352 3.39535 6.65116 3.08299 6.65116 2.69767ZM4.32558 6.83204C4.32558 6.44673 4.63794 6.13437 5.02326 6.13437H18.9767C19.3621 6.13437 19.6744 6.44673 19.6744 6.83204C19.6744 7.21736 19.3621 7.52972 18.9767 7.52972H5.02326C4.63794 7.52972 4.32558 7.21736 4.32558 6.83204ZM2 13.0336C2 11.4316 3.43309 10.2687 5.02326 10.2687H18.9767C20.567 10.2687 22 11.4316 22 13.0336V19.2351C22 20.8371 20.567 22 18.9767 22H5.02326C3.43309 22 2 20.8372 2 19.2351V13.0336ZM10.457 13.999C10.6551 13.8703 10.9047 13.8505 11.1206 13.9464L14.6089 15.4968C14.8609 15.6088 15.0233 15.8587 15.0233 16.1344C15.0233 16.4101 14.8609 16.6599 14.6089 16.7719L11.1206 18.3223C10.9047 18.4182 10.6551 18.3984 10.457 18.2697C10.259 18.1411 10.1395 17.9209 10.1395 17.6848V14.584C10.1395 14.3478 10.259 14.1277 10.457 13.999Z" fill="white"/>
</svg>
