<svg width="24" height="24" viewBox="0 0 24 24" fill="none" xmlns="http://www.w3.org/2000/svg">
<path d="M9.75635 18.9203C9.75635 19.4129 9.36927 19.7648 8.91181 19.7648H6.37818C4.47795 19.7648 3 18.2869 3 16.3866V7.37818C3 5.51314 4.47795 4 6.37818 4H8.91181C9.36927 4 9.75635 4.38708 9.75635 4.84454C9.75635 5.33719 9.36927 5.68909 8.91181 5.68909H6.37818C5.42806 5.68909 4.68909 6.46325 4.68909 7.37818V16.3866C4.68909 17.3368 5.42806 18.0757 6.37818 18.0757H8.91181C9.36927 18.0757 9.75635 18.4628 9.75635 18.9203ZM20.7706 11.3194L16.3016 6.53363C15.9849 6.18174 15.457 6.18174 15.1051 6.49844C14.7532 6.81515 14.7532 7.34299 15.0699 7.69488L18.2018 11.0379H9.43965C8.98219 11.0379 8.63029 11.4249 8.63029 11.8824C8.63029 12.3751 8.98219 12.727 9.43965 12.727H18.1666L14.9996 16.1051C14.6829 16.457 14.6829 16.9849 15.0347 17.3016C15.2459 17.4423 15.457 17.5127 15.633 17.5127C15.8441 17.5127 16.0552 17.4423 16.2312 17.2664L20.7002 12.4806C21.0873 12.1639 21.0873 11.6361 20.7706 11.3194Z" fill="white"/>
</svg>
