<svg width="24" height="24" viewBox="0 0 24 24" fill="none" xmlns="http://www.w3.org/2000/svg">
<path fill-rule="evenodd" clip-rule="evenodd" d="M12 4C8.93248 4 6.29296 6.75539 6.29296 10.3517V10.3628L6.29289 10.3628L6.26854 12.5428C6.26734 14.0024 5.80949 15.2454 5.26903 16.1818H18.7395C18.2205 15.2435 17.7814 13.998 17.7814 12.537V12.5252L17.7815 12.5252L17.8058 10.4542C17.803 6.80095 15.1204 4 12 4ZM4.29296 10.3459C4.29581 5.82427 7.66096 2 12 2C16.3954 2 19.8058 5.876 19.8058 10.4599V10.4717H19.8058L19.7814 12.5426C19.7828 13.8148 20.2462 14.8823 20.7335 15.6155C21.0802 16.1372 21.0433 16.7482 20.8772 17.1757C20.7171 17.5882 20.2777 18.1818 19.4933 18.1818H4.50763C3.71056 18.1818 3.27274 17.5705 3.11703 17.1571C2.95505 16.727 2.92073 16.1055 3.28365 15.5818C3.79269 14.8473 4.26855 13.7902 4.26855 12.537V12.5258L4.26861 12.5258L4.29296 10.3459ZM8.55203 19.4667C8.89674 19.0352 9.52598 18.9649 9.95748 19.3096C10.4855 19.7314 11.1992 20 12 20C12.8008 20 13.5145 19.7314 14.0425 19.3096C14.474 18.9649 15.1033 19.0352 15.448 19.4667C15.7927 19.8982 15.7223 20.5275 15.2908 20.8722C14.4035 21.5811 13.2482 22 12 22C10.7518 22 9.59652 21.5811 8.70917 20.8722C8.27767 20.5275 8.20732 19.8982 8.55203 19.4667Z" fill="white"/>
</svg>
