<svg width="24" height="24" viewBox="0 0 24 24" fill="none" xmlns="http://www.w3.org/2000/svg">
<path d="M14.0426 19.3096C14.4741 18.9649 15.1032 19.0353 15.4479 19.4668C15.7926 19.8983 15.7221 20.5274 15.2906 20.8721C14.4033 21.5809 13.2477 22 11.9996 22C10.7517 21.9999 9.5968 21.5808 8.70958 20.8721C8.27808 20.5274 8.20764 19.8983 8.55235 19.4668C8.89708 19.0354 9.52616 18.9649 9.95762 19.3096C10.4855 19.7313 11.199 19.9999 11.9996 20C12.8004 20 13.5146 19.7314 14.0426 19.3096ZM11.9996 2C12.779 2 13.5272 2.12356 14.2311 2.34961C14.0813 2.87404 13.9996 3.4275 13.9996 4C13.9996 4.13589 14.0054 4.27066 14.0143 4.4043C13.3819 4.1428 12.7019 4 11.9996 4C8.93229 4.00024 6.29263 6.75549 6.29258 10.3516V10.3633L6.26817 12.543C6.26692 14.0024 5.80954 15.2453 5.26915 16.1816H18.7398C18.2209 15.2434 17.7819 13.9981 17.7818 12.5371V12.5254L17.8063 10.4541C17.806 10.1499 17.7847 9.85182 17.7486 9.56055C18.3835 9.81783 19.0714 9.96963 19.7926 9.99414C19.8004 10.1485 19.8063 10.3038 19.8063 10.46V10.4717L19.7818 12.543C19.7833 13.8147 20.2459 14.8821 20.733 15.6152C21.0797 16.1369 21.0435 16.7483 20.8775 17.1758C20.7174 17.5882 20.2778 18.1814 19.4938 18.1816H4.50743C3.71052 18.1815 3.27251 17.5706 3.1168 17.1572C2.95483 16.7272 2.92092 16.1057 3.28379 15.582C3.79282 14.8475 4.26814 13.7902 4.26817 12.5371V12.5254L4.29258 10.3457C4.29554 5.82429 7.66084 2.00023 11.9996 2Z" fill="white"/>
<circle cx="20" cy="4" r="4" fill="#EF4444"/>
</svg>
