<svg width="24" height="24" viewBox="0 0 24 24" fill="none" xmlns="http://www.w3.org/2000/svg">
<path d="M21 11.9567C21 12.5625 20.524 12.9952 19.9615 12.9952H13.0385V19.9183C13.0385 20.524 12.5625 21 12 21C11.3942 21 10.9615 20.524 10.9615 19.9183V12.9952H4.03846C3.43269 12.9952 3 12.5625 3 12C3 11.3942 3.43269 10.9183 4.03846 10.9183H10.9615V3.99519C10.9615 3.43269 11.3942 3 12 3C12.5625 3 13.0385 3.43269 13.0385 3.99519V10.9183H19.9615C20.524 10.9183 21 11.3942 21 11.9567Z" fill="white"/>
</svg>
