<svg width="24" height="24" viewBox="0 0 24 24" fill="none" xmlns="http://www.w3.org/2000/svg">
<path d="M6.3537 11.2851C6.87348 10.9877 7.66132 10.8736 8.37323 11.3788L9.48358 22.9999H7.33319L5.43964 13.2284C5.27155 12.2787 5.80144 11.6012 6.3537 11.2851ZM11.8371 10.0536C12.8637 10.0537 13.8009 10.5111 14.4484 11.2948L13.3293 22.9999H10.3459L9.22675 11.2948C9.87262 10.511 10.8104 10.0536 11.8371 10.0536ZM15.3 11.3788C16.0119 10.8728 16.7997 10.9877 17.3195 11.2851C17.871 11.6012 18.4019 12.2776 18.2355 13.2206L16.341 22.9999H14.1896L15.3 11.3788ZM16.5217 6.9921C17.1725 6.9921 17.6607 7.57623 17.5607 8.20987C17.5256 8.43137 17.6704 8.64276 17.8908 8.69132C18.3694 8.79782 18.7169 9.22837 18.717 9.71475C18.717 10.1781 18.4079 10.5638 17.9758 10.7011C17.9012 10.6483 17.8288 10.5928 17.7482 10.5468C16.8648 10.04 15.8136 10.0598 14.968 10.5692C14.7931 10.3794 14.598 10.2157 14.3957 10.0624C14.3562 9.94995 14.3254 9.8339 14.3254 9.71378C14.3255 9.22761 14.6723 8.798 15.1506 8.69132C15.3727 8.64276 15.5176 8.43013 15.4816 8.20694C15.3778 7.57482 15.8732 6.99128 16.5217 6.9921ZM7.4953 6.62784C8.14099 6.62806 8.63715 7.21164 8.53339 7.84366C8.49673 8.06588 8.64229 8.27767 8.86347 8.32706C9.35045 8.43539 9.68964 8.85651 9.68964 9.3505C9.68962 9.54379 9.63183 9.72703 9.53241 9.89053C9.23401 10.0839 8.95052 10.3009 8.70526 10.5683C7.95737 10.1177 7.04993 10.0536 6.23944 10.3935C5.70339 10.3347 5.29918 9.88888 5.29999 9.3505C5.29999 8.85637 5.63983 8.43525 6.12616 8.32706C6.34734 8.27841 6.4914 8.06705 6.45624 7.84561C6.35605 7.21272 6.84265 6.62784 7.4953 6.62784ZM10.5266 5.92471C10.6304 5.29262 11.2821 4.89323 11.8996 5.09854C12.5161 5.30311 12.7957 6.01182 12.4973 6.57999C12.3927 6.77924 12.4618 7.0256 12.6555 7.14151C13.0826 7.39624 13.2713 7.90341 13.1135 8.37198C12.9288 8.92111 12.3286 9.21732 11.7756 9.03507C11.4825 8.93708 11.2478 8.71227 11.132 8.4169C11.0848 8.29933 10.9883 8.20792 10.8674 8.16788C10.7474 8.12793 10.614 8.14357 10.506 8.20987C10.4239 8.26003 10.336 8.29785 10.2453 8.32511C10.0463 8.01588 9.75844 7.7658 9.40936 7.61417C9.39736 7.2751 9.29037 6.96308 9.12225 6.69132C9.34184 6.40689 9.68673 6.24368 10.0598 6.28116C10.2835 6.30233 10.4905 6.14785 10.5266 5.92471ZM13.1476 3.84854C13.5953 3.4031 14.3794 3.46902 14.7482 3.97745C14.8803 4.15976 15.1324 4.20805 15.3254 4.08878C15.7457 3.8239 16.2862 3.88209 16.6379 4.23136C17.0491 4.6411 17.0493 5.30704 16.6379 5.71671C16.4192 5.93395 16.107 6.0417 15.7922 6.01358C15.6645 6.0035 15.5403 6.0473 15.4504 6.13663C15.3294 6.2559 15.3218 6.40798 15.3244 6.56729C15.0175 6.81428 14.787 7.14773 14.6789 7.53604C14.4518 7.62876 14.2018 7.6405 13.967 7.56827C13.8761 7.21401 13.6836 6.88766 13.4016 6.63468C13.616 5.91737 13.3781 5.1673 12.8498 4.68936C12.8206 4.37926 12.9238 4.0709 13.1476 3.84854Z" fill="white"/>
</svg>
