<svg width="24" height="24" viewBox="0 0 24 24" fill="none" xmlns="http://www.w3.org/2000/svg">
<path d="M6.3537 11.2851C6.87349 10.9878 7.66131 10.8737 8.37323 11.3789L9.48358 23H7.33319L5.43964 13.2285C5.27156 12.2788 5.80146 11.6013 6.3537 11.2851ZM11.8371 10.0537C12.8635 10.0538 13.8009 10.5104 14.4484 11.2939L13.3293 23H10.3459L9.22675 11.2939C9.87261 10.5103 10.8105 10.0537 11.8371 10.0537ZM15.3 11.3789C16.0119 10.8728 16.7997 10.9878 17.3195 11.2851C17.871 11.6013 18.4019 12.2777 18.2355 13.2207L16.341 23H14.1896L15.3 11.3789ZM16.5217 6.99217C17.1726 6.99217 17.6609 7.57623 17.5607 8.20995C17.5256 8.43145 17.6704 8.64283 17.8908 8.69139C18.3694 8.79792 18.717 9.22841 18.717 9.71483C18.717 10.1782 18.4079 10.5639 17.9758 10.7012C17.9011 10.6483 17.8289 10.5929 17.7482 10.5469C16.8648 10.04 15.8136 10.0599 14.968 10.5693C14.7931 10.3795 14.598 10.2157 14.3957 10.0625C14.3562 9.95003 14.3254 9.83397 14.3254 9.71385C14.3254 9.22755 14.6722 8.79705 15.1506 8.69041C15.3727 8.64187 15.5175 8.43014 15.4816 8.20702C15.3778 7.57489 15.8732 6.99135 16.5217 6.99217ZM7.4953 6.62791C8.14086 6.62814 8.63688 7.21089 8.53339 7.84276C8.4965 8.06511 8.64217 8.27772 8.86347 8.32713C9.35042 8.43548 9.68964 8.85659 9.68964 9.35057C9.68958 9.54385 9.63185 9.72712 9.53241 9.89061C9.23398 10.084 8.95054 10.3009 8.70526 10.5683C7.95734 10.1177 7.04998 10.0536 6.23944 10.3935C5.70345 10.3348 5.29927 9.88887 5.29999 9.35057C5.29999 8.85645 5.63983 8.43533 6.12616 8.32713C6.34736 8.27851 6.4914 8.06714 6.45624 7.84569C6.35593 7.21272 6.84259 6.62791 7.4953 6.62791ZM10.5266 5.92479C10.6303 5.29265 11.282 4.8933 11.8996 5.09862C12.5161 5.30321 12.7957 6.01191 12.4973 6.58006C12.3928 6.77932 12.4618 7.02573 12.6555 7.14159C13.0826 7.39629 13.2712 7.90255 13.1135 8.37108C12.9291 8.92058 12.3288 9.21746 11.7756 9.03514C11.4825 8.93718 11.2478 8.71228 11.132 8.41698C11.0848 8.29941 10.9883 8.20799 10.8674 8.16795C10.7474 8.12797 10.6141 8.14359 10.506 8.20995C10.4239 8.26012 10.336 8.29793 10.2453 8.32518C10.0463 8.01594 9.75843 7.76589 9.40936 7.61424C9.39736 7.27522 9.29033 6.96313 9.12225 6.69139C9.34184 6.4069 9.68668 6.24278 10.0598 6.28026C10.2835 6.30147 10.4905 6.14789 10.5266 5.92479ZM13.1476 3.84862C13.5954 3.40307 14.3794 3.46896 14.7482 3.97752C14.8803 4.15984 15.1324 4.20812 15.3254 4.08885C15.7457 3.82391 16.2862 3.88117 16.6379 4.23045C17.0496 4.6402 17.0495 5.30699 16.6379 5.71678C16.4192 5.93403 16.107 6.04079 15.7922 6.01268C15.6645 6.00261 15.5403 6.04737 15.4504 6.1367C15.3296 6.25585 15.3219 6.40727 15.3244 6.56639C15.0174 6.81343 14.787 7.14768 14.6789 7.53612C14.4518 7.62881 14.2018 7.64055 13.967 7.56834C13.8761 7.21394 13.6837 6.8868 13.4016 6.63377C13.6157 5.91664 13.378 5.16729 12.8498 4.68944C12.8206 4.37934 12.9238 4.07097 13.1476 3.84862ZM7.03632 0.304672C7.49867 -0.154965 8.25886 -0.0813314 8.63788 0.436508C8.77089 0.617701 9.02375 0.664106 9.21405 0.544906C9.63514 0.279376 10.1741 0.339271 10.5266 0.688461C10.9379 1.09811 10.9378 1.76405 10.5266 2.17381C10.3078 2.39106 10.0026 2.50221 9.68182 2.47069C9.55328 2.45802 9.43001 2.50533 9.34003 2.59471C9.25007 2.68415 9.20486 2.80854 9.216 2.93455C9.24504 3.24959 9.13574 3.55529 8.91718 3.77245C8.50461 4.18138 7.83279 4.18223 7.42108 3.77245C7.06948 3.42315 7.00994 2.88615 7.27753 2.46873C7.39843 2.27961 7.35083 2.02851 7.16815 1.89647C6.64668 1.51905 6.57401 0.76471 7.03632 0.304672Z" fill="white"/>
</svg>
