<svg width="24" height="24" viewBox="0 0 24 24" fill="none" xmlns="http://www.w3.org/2000/svg">
<path d="M6.63904 12.5511C7.13172 12.2641 7.87829 12.1543 8.5531 12.6419L9.60583 23.8626H7.56775L5.77283 14.4281C5.61349 13.5111 6.11552 12.8564 6.63904 12.5511ZM11.8363 11.3626C12.8095 11.3626 13.698 11.8041 14.3119 12.5609L13.2513 23.8626H10.4232L9.36267 12.5609C9.97489 11.8042 10.8631 11.3627 11.8363 11.3626ZM15.1195 12.6419C15.7943 12.1534 16.5409 12.2641 17.0336 12.5511C17.5563 12.8563 18.0594 13.5098 17.9017 14.4203L16.1058 23.8626H14.0668L15.1195 12.6419ZM16.2777 8.40659C16.8945 8.40682 17.3569 8.97067 17.2621 9.58237C17.229 9.79591 17.366 10.0002 17.5746 10.0472C18.0282 10.1501 18.3578 10.5658 18.3578 11.0355C18.3575 11.4826 18.0651 11.8552 17.6556 11.9876C17.585 11.9367 17.5162 11.8836 17.4398 11.8392C16.6024 11.3498 15.6067 11.3688 14.8051 11.8607C14.6394 11.6775 14.4537 11.5193 14.2621 11.3714C14.2247 11.263 14.1948 11.1503 14.1947 11.0345C14.1947 10.5649 14.5243 10.1491 14.9779 10.0462C15.1883 9.99938 15.3253 9.79477 15.2914 9.57944C15.193 8.9691 15.663 8.40576 16.2777 8.40659ZM7.72107 8.05502C8.33312 8.05526 8.8038 8.61864 8.70544 9.22885C8.67101 9.44321 8.80847 9.64801 9.01794 9.69565C9.47948 9.8003 9.80115 10.207 9.80115 10.6839C9.80097 10.8703 9.74589 11.0477 9.65173 11.2054C9.36893 11.3921 9.09998 11.6015 8.86755 11.8597C8.15864 11.4247 7.29886 11.3626 6.53064 11.6908C6.02278 11.634 5.63965 11.2034 5.64001 10.6839C5.64001 10.2069 5.96227 9.80015 6.42322 9.69565C6.63274 9.64873 6.76877 9.44444 6.73572 9.2308C6.64066 8.61968 7.10237 8.05502 7.72107 8.05502ZM10.5941 7.37631C10.6925 6.76597 11.3105 6.38022 11.8959 6.57846C12.4801 6.77602 12.745 7.45966 12.4623 8.00815C12.3634 8.20044 12.4293 8.43826 12.6127 8.55014C13.0174 8.79613 13.1968 9.28629 13.0472 9.73862C12.8722 10.2687 12.3029 10.5551 11.7787 10.3792C11.5008 10.2847 11.2782 10.0668 11.1683 9.78159C11.1236 9.66823 11.0319 9.58001 10.9174 9.54135C10.8036 9.50285 10.6769 9.51828 10.5746 9.58237C10.4967 9.63076 10.4135 9.66741 10.3275 9.6937C10.1389 9.39524 9.86627 9.15358 9.53552 9.00717C9.52415 8.68003 9.42223 8.37881 9.26306 8.11655C9.4712 7.84181 9.79805 7.68387 10.1517 7.72006C10.3636 7.74056 10.5596 7.59137 10.5941 7.37631ZM13.0785 5.37143C13.5029 4.94123 14.2465 5.00536 14.5961 5.49643C14.7213 5.67198 14.9602 5.71775 15.1429 5.60287C15.5413 5.34709 16.0537 5.40334 16.3871 5.74057C16.7771 6.13624 16.7773 6.77957 16.3871 7.17514C16.1798 7.3847 15.8845 7.48837 15.5863 7.46127C15.4653 7.45141 15.3474 7.49422 15.2621 7.58041C15.1477 7.69554 15.1395 7.84272 15.142 7.99643C14.8512 8.23491 14.633 8.55719 14.5306 8.93198C14.3153 9.02149 14.0775 9.03208 13.8549 8.96225C13.7687 8.62035 13.5869 8.30505 13.3197 8.06088C13.5228 7.36846 13.2969 6.64437 12.7963 6.18295C12.7687 5.88382 12.8666 5.58603 13.0785 5.37143ZM7.81287 3.6058C8.25107 3.16166 8.97202 3.23177 9.33142 3.73178C9.45742 3.90661 9.69697 3.95205 9.87732 3.83725C10.2765 3.58061 10.7873 3.63867 11.1215 3.97592C11.5114 4.3716 11.5116 5.01496 11.1215 5.41049C10.9142 5.61987 10.6254 5.72697 10.3217 5.69662C10.1997 5.68429 10.0828 5.72946 9.99744 5.81577C9.91223 5.90212 9.86871 6.02227 9.87927 6.14389C9.90675 6.44805 9.80328 6.74383 9.59607 6.95346C9.20503 7.34775 8.56824 7.3487 8.1781 6.95346C7.84485 6.61632 7.78896 6.09767 8.04236 5.69467C8.1569 5.51223 8.11163 5.26953 7.93884 5.14194C7.44473 4.77771 7.37531 4.05004 7.81287 3.6058ZM12.8734 0.938812C13.0717 0.351144 13.7349 0.07193 14.2797 0.369476C14.8244 0.667073 14.9678 1.38924 14.6029 1.8851C14.4751 2.05894 14.5027 2.30626 14.6635 2.44858C15.0206 2.76278 15.1151 3.27676 14.8959 3.70053C14.638 4.19608 14.0335 4.38349 13.5482 4.1185C13.291 3.97755 13.1062 3.7272 13.0463 3.42221C13.0222 3.29996 12.9461 3.19892 12.8402 3.14096C12.7342 3.08299 12.6087 3.07665 12.4974 3.12241C12.2197 3.23787 11.912 3.22322 11.6547 3.08237C11.1701 2.81634 10.9839 2.196 11.2416 1.70053C11.4612 1.27748 11.9317 1.07182 12.3842 1.20151C12.5891 1.26001 12.8041 1.1447 12.8734 0.938812Z" fill="white"/>
</svg>
