<svg width="24" height="24" viewBox="0 0 24 24" fill="none" xmlns="http://www.w3.org/2000/svg">
<path d="M20.7505 7.15875C19.9101 4.61628 17.1935 3.24545 14.707 4.10076C14.2466 4.25307 13.8207 4.47568 13.4523 4.74516C12.2206 3.25717 10.1831 2.60105 8.2607 3.25717C5.75123 4.11247 4.41592 6.86584 5.25625 9.40831C5.26776 9.44345 5.27927 9.49032 5.29078 9.52547C3.55257 10.6034 2.63167 12.7123 3.13817 14.833C3.73675 17.3169 6.08506 18.8752 8.50244 18.5003C9.95286 20.5858 12.612 21.5465 15.1214 20.6912C18.1834 19.6485 19.8296 16.2741 18.8051 13.1576C18.7705 13.0638 18.736 12.9584 18.7015 12.8764C20.5663 11.7164 21.4757 9.36144 20.7505 7.17046V7.15875ZM15.1675 9.97069C15.0293 9.95898 12.117 9.65435 11.1961 11.1892C10.6435 12.1031 11.3227 12.7944 10.7356 14.3292C10.4594 15.0556 10.0565 15.5712 9.74566 15.9109C10.2867 14.669 10.2406 13.2162 9.45787 11.9976C8.6751 10.7791 7.3513 10.0761 5.94693 9.97069C6.31529 9.88868 6.87934 9.79495 7.58153 9.81838C8.68662 9.84181 8.89382 10.1113 9.5845 10.123C11.4493 10.1582 12.8767 8.22494 13.0724 7.95547C13.6135 7.22905 13.8667 6.50263 14.0048 5.99882C14.1315 7.07673 13.8437 8.20151 13.2221 9.10368C14.5228 8.79905 15.9272 9.32629 16.9172 10.4745C16.5373 10.287 15.9387 10.0527 15.1675 9.97069Z" fill="white"/>
</svg>
