<svg width="24" height="24" viewBox="0 0 24 24" fill="none" xmlns="http://www.w3.org/2000/svg">
<circle cx="13.2" cy="6.4" r="3.7" stroke="black" stroke-width="1.8"/>
<path d="M14.5 5.1C14.1 4.6 12.5 4.5 12.2 5.3C11.9 6.1 13 6.3 13.6 6.5C14.4 6.8 14.4 7.7 13.7 8C13 8.3 12 8 11.8 7.5" stroke="black" stroke-width="1.1" stroke-linecap="round"/>
<path d="M13.2 3.6V4.6M13.2 8.2V9.2" stroke="black" stroke-width="1.1" stroke-linecap="round"/>
<path d="M3 12.8H5.8V20H3V12.8Z" fill="black"/>
<path d="M5.8 18.5L12.3 20.4C12.9 20.6 13.6 20.5 14.2 20.2L20.2 17.3C21 16.9 21.3 15.9 20.8 15.2C20.4 14.6 19.6 14.4 18.9 14.7L14.9 16.3C14.7 16.4 14.4 16.4 14.2 16.4H11.2C10.8 16.4 10.5 16.1 10.5 15.7C10.5 15.3 10.8 15 11.2 15H13.3C13.9 15 14.4 14.5 14.4 13.9C14.4 13.3 13.9 12.8 13.3 12.8H9.6C8.8 12.8 8.1 13.1 7.5 13.6L5.8 15V18.5Z" fill="black"/>
</svg>
