<svg width="24" height="24" viewBox="0 0 24 24" fill="none" xmlns="http://www.w3.org/2000/svg">
<!-- The z and the period lifted verbatim from ztor_logo.svg (subpaths 4 and 2),
     period translated to sit beside the z, composite scaled to the icon box. -->
<g transform="translate(-0.16,-1.55) scale(0.5417)">
<path fill-rule="evenodd" clip-rule="evenodd" d="M15.6356 10.0203C23.8355 10.0203 29.277 10.0841 29.5604 10.1844C30.0739 10.3662 30.3212 10.9796 30.1453 11.6326C30.0832 11.8626 27.8643 14.7614 25.2147 18.074C22.5652 21.3865 18.9843 25.8628 17.2567 28.0213L15.7791 29.867C15.1052 30.7095 15.6929 31.9633 16.7674 31.9754L21.8455 32.0311C26.0975 32.078 29.7207 32.1825 29.8963 32.2625C30.4415 32.5117 30.6188 33.5224 30.5545 36.0145C30.4966 38.2566 30.4712 38.3926 30.0604 38.702C29.6429 39.016 29.123 39.0272 15.2527 39.0272H1.38166C1.05759 39.0271 0.745503 38.904 0.507632 38.6824L0.427554 38.6082C-0.11101 38.1069 -0.135048 37.7482 0.323062 37.0653C0.512097 36.7834 4.18332 32.176 8.48224 26.827L14.6287 19.1795C15.3047 18.3379 14.7184 17.0824 13.6434 17.0692L9.24298 17.0164C2.41415 16.9338 2.17454 16.9187 1.80744 16.577C1.46397 16.2569 1.42762 16.0168 1.42267 14.0184C1.41461 10.7219 1.41378 10.7304 1.81037 10.3611C2.17032 10.026 2.42145 10.0203 15.6356 10.0203Z" fill="black"/>
<path fill-rule="evenodd" clip-rule="evenodd" d="M119.457 28.9813C121.942 28.6173 124.231 29.6624 125.456 31.7215C125.939 32.5333 126 32.7972 126 34.0858C126 35.2801 125.921 35.6863 125.551 36.3865C124.278 38.7945 121.239 39.9664 118.512 39.1014C117.323 38.7241 115.8 37.3928 115.269 36.2654C114.768 35.2004 114.675 33.3112 115.078 32.3797C115.832 30.6335 117.614 29.251 119.457 28.9813Z" fill="black" transform="translate(-81.58 0)"/>
</g>
</svg>
