<svg width="24" height="24" viewBox="0 0 24 24" fill="none" xmlns="http://www.w3.org/2000/svg">
<path d="M21 19.75H3C2.53668 19.7474 2.09309 19.5622 1.76546 19.2345C1.43784 18.9069 1.25263 18.4633 1.25 18V15.35C1.25762 14.9704 1.38573 14.6031 1.61582 14.3011C1.84591 13.9991 2.16606 13.7781 2.53 13.67C2.8857 13.5586 3.19654 13.3365 3.41723 13.0361C3.63792 12.7357 3.75693 12.3727 3.75693 12C3.75693 11.6273 3.63792 11.2643 3.41723 10.9639C3.19654 10.6635 2.8857 10.4414 2.53 10.33C2.16606 10.2219 1.84591 10.0009 1.61582 9.6989C1.38573 9.39691 1.25762 9.02958 1.25 8.65V6C1.25263 5.53668 1.43784 5.09309 1.76546 4.76546C2.09309 4.43784 2.53668 4.25263 3 4.25H21C21.4633 4.25263 21.9069 4.43784 22.2345 4.76546C22.5622 5.09309 22.7474 5.53668 22.75 6V8.65C22.7424 9.02958 22.6143 9.39691 22.3842 9.6989C22.1541 10.0009 21.8339 10.2219 21.47 10.33C21.1143 10.4414 20.8035 10.6635 20.5828 10.9639C20.3621 11.2643 20.2431 11.6273 20.2431 12C20.2431 12.3727 20.3621 12.7357 20.5828 13.0361C20.8035 13.3365 21.1143 13.5586 21.47 13.67C21.8339 13.7781 22.1541 13.9991 22.3842 14.3011C22.6143 14.6031 22.7424 14.9704 22.75 15.35V18C22.7474 18.4633 22.5622 18.9069 22.2345 19.2345C21.9069 19.5622 21.4633 19.7474 21 19.75ZM3 5.75C2.9337 5.75 2.87011 5.77634 2.82322 5.82322C2.77634 5.87011 2.75 5.9337 2.75 6V8.65C2.75 8.78 2.88 8.87 2.99 8.9C3.64442 9.11295 4.21467 9.52755 4.61906 10.0844C5.02345 10.6413 5.24124 11.3118 5.24124 12C5.24124 12.6882 5.02345 13.3587 4.61906 13.9156C4.21467 14.4725 3.64442 14.887 2.99 15.1C2.88 15.1 2.75 15.22 2.75 15.35V18C2.75 18.0663 2.77634 18.1299 2.82322 18.1768C2.87011 18.2237 2.9337 18.25 3 18.25H21C21.0663 18.25 21.1299 18.2237 21.1768 18.1768C21.2237 18.1299 21.25 18.0663 21.25 18V15.35C21.25 15.22 21.12 15.13 21.01 15.1C20.3556 14.887 19.7853 14.4725 19.3809 13.9156C18.9766 13.3587 18.7588 12.6882 18.7588 12C18.7588 11.3118 18.9766 10.6413 19.3809 10.0844C19.7853 9.52755 20.3556 9.11295 21.01 8.9C21.12 8.9 21.25 8.78 21.25 8.65V6C21.25 5.9337 21.2237 5.87011 21.1768 5.82322C21.1299 5.77634 21.0663 5.75 21 5.75H3Z" fill="white"/>
<path d="M11.67 8.72L10.87 10.57C10.8437 10.6358 10.798 10.692 10.7391 10.7313C10.6802 10.7705 10.6108 10.791 10.54 10.79H8.99996C8.92354 10.7886 8.84865 10.8115 8.78612 10.8554C8.7236 10.8994 8.67669 10.9621 8.65218 11.0345C8.62768 11.1069 8.62685 11.1852 8.64982 11.2581C8.6728 11.331 8.71837 11.3947 8.77996 11.44L10.15 12.54C10.2071 12.5852 10.2491 12.6467 10.2705 12.7164C10.292 12.786 10.2918 12.8605 10.27 12.93L9.59996 15C9.57988 15.0735 9.58297 15.1514 9.60882 15.223C9.63466 15.2947 9.68199 15.3566 9.74434 15.4004C9.80669 15.4441 9.88103 15.4676 9.95721 15.4675C10.0334 15.4675 10.1077 15.4439 10.17 15.4L11.78 14.18C11.8448 14.1357 11.9215 14.112 12 14.112C12.0785 14.112 12.1551 14.1357 12.22 14.18L13.83 15.4C13.8922 15.4439 13.9665 15.4675 14.0427 15.4675C14.1189 15.4676 14.1932 15.4441 14.2556 15.4004C14.3179 15.3566 14.3653 15.2947 14.3911 15.223C14.4169 15.1514 14.42 15.0735 14.4 15L13.77 12.9C13.7481 12.8305 13.7479 12.756 13.7694 12.6864C13.7908 12.6167 13.8328 12.5552 13.89 12.51L15.26 11.41C15.3215 11.3647 15.3671 11.301 15.3901 11.2281C15.4131 11.1552 15.4122 11.0769 15.3877 11.0045C15.3632 10.9321 15.3163 10.8694 15.2538 10.8254C15.1913 10.7815 15.1164 10.7586 15.04 10.76H13.46C13.3892 10.761 13.3197 10.7405 13.2608 10.7013C13.2019 10.662 13.1563 10.6058 13.13 10.54L12.33 8.69C12.2992 8.6269 12.2506 8.57419 12.1902 8.53836C12.1298 8.50252 12.0603 8.48513 11.9901 8.48832C11.92 8.49151 11.8523 8.51514 11.7954 8.5563C11.7385 8.59747 11.6949 8.65437 11.67 8.72Z" fill="white"/>
</svg>
