<svg width="24" height="24" viewBox="0 0 24 24" fill="none" xmlns="http://www.w3.org/2000/svg">
<path d="M17.0469 1C19.7782 1 21.9998 3.21998 22 5.94824V18.0518C22 20.7343 19.732 23 17.0469 23H6.95312C4.22172 22.9999 2 20.7801 2 18.0518V5.94824C2.0002 3.21956 4.22185 1.00008 6.95312 1H17.0469ZM6.94824 2.82715C5.19601 2.82715 3.82344 4.19771 3.82324 5.94824V18.0527C3.82335 18.8908 4.15709 19.6787 4.7627 20.2715C5.34943 20.8454 6.14622 21.1737 6.94824 21.1738H17.042C17.881 21.1738 18.6702 20.8405 19.2637 20.2354C19.8381 19.6491 20.167 18.8531 20.167 18.0518V5.94824C20.1669 5.11014 19.8332 4.32227 19.2275 3.72949C18.6407 3.15559 17.8441 2.82715 17.042 2.82715H6.94824ZM11.998 16.1289C12.5634 16.129 12.9141 16.4715 12.9141 17.0449C12.914 17.6183 12.4485 17.9608 11.998 17.9609H7.96094C7.39562 17.9608 7.04496 17.6183 7.04492 17.0449C7.04492 16.4715 7.51051 16.129 7.96094 16.1289H11.998ZM16.0342 11.084C16.5996 11.084 16.9511 11.4267 16.9512 12C16.9512 12.5735 16.4847 12.916 16.0342 12.916H7.95703C7.39152 12.916 7.04004 12.5735 7.04004 12C7.04017 11.4267 7.50658 11.084 7.95703 11.084H16.0342ZM16.0342 6.04492C16.4846 6.04492 16.951 6.38672 16.9512 6.95996C16.9512 7.53345 16.4847 7.87598 16.0342 7.87598H7.95703C7.49422 7.87598 7.04004 7.42234 7.04004 6.95996C7.0403 6.49772 7.49482 6.04492 7.95703 6.04492H16.0342Z" fill="white"/>
</svg>
