<svg width="24" height="24" viewBox="0 0 24 24" fill="none" xmlns="http://www.w3.org/2000/svg">
<path fill-rule="evenodd" clip-rule="evenodd" d="M11.44 4.6C7.66238 4.6 4.60001 7.66237 4.60001 11.44C4.60001 15.2176 7.66238 18.28 11.44 18.28C13.3026 18.28 14.9913 17.5355 16.2248 16.3279C16.2264 16.3263 16.2281 16.3246 16.2298 16.323C17.4951 15.0817 18.28 13.3525 18.28 11.44C18.28 7.66237 15.2176 4.6 11.44 4.6ZM18.3177 16.9941C19.545 15.4763 20.28 13.544 20.28 11.44C20.28 6.5578 16.3222 2.6 11.44 2.6C6.55781 2.6 2.60001 6.5578 2.60001 11.44C2.60001 16.3222 6.55781 20.28 11.44 20.28C13.4974 20.28 15.3907 19.5771 16.8928 18.3984L19.7047 21.1187C20.1016 21.5027 20.7347 21.4922 21.1187 21.0953C21.5027 20.6984 21.4922 20.0653 21.0953 19.6813L18.3177 16.9941Z" fill="white"/>
</svg>
