<svg width="24" height="24" viewBox="0 0 24 24" fill="none" xmlns="http://www.w3.org/2000/svg">
<path fill-rule="evenodd" clip-rule="evenodd" d="M9.13008 3.35237C8.95668 3.31347 8.77662 3.31223 8.60124 3.34886C8.43231 3.38415 8.25695 3.47547 7.61905 3.8457L7.13397 4.12688L7.12336 4.1332C6.4911 4.50016 6.32607 4.60629 6.21237 4.73427C6.0946 4.86682 6.00639 5.02313 5.95352 5.19303C5.90228 5.35769 5.89607 5.55613 5.90842 6.29008L5.91557 6.71474C5.91595 6.73736 5.91642 6.75436 5.91691 6.77214C5.91702 6.77573 5.91712 6.77936 5.91722 6.78308C5.91776 6.80298 5.91857 6.83306 5.91808 6.86635C5.91154 7.30785 5.79761 7.73952 5.59071 8.12538C5.57003 8.16394 5.54829 8.20159 5.52067 8.24939L5.51597 8.25752C5.51086 8.26636 5.50576 8.27522 5.50068 8.28406C5.47993 8.32014 5.45939 8.35585 5.43932 8.38818C5.20744 8.76179 4.88948 9.07447 4.51144 9.29989C4.47769 9.32002 4.4411 9.34024 4.40232 9.36168C4.39455 9.36597 4.38669 9.37031 4.37875 9.37472L4.01718 9.57508C3.37056 9.93342 3.20134 10.0377 3.08404 10.165C2.96322 10.2961 2.87178 10.4518 2.81592 10.6216C2.76176 10.7862 2.75255 10.9856 2.75423 11.7238L2.7555 12.286C2.75717 13.0179 2.76773 13.2167 2.82212 13.3805C2.87845 13.5502 2.9694 13.7048 3.08882 13.8343C3.20547 13.9608 3.37273 14.0643 4.01435 14.4212L4.37269 14.6206C4.38114 14.6253 4.38949 14.6299 4.39772 14.6345C4.43999 14.6579 4.47939 14.6798 4.51605 14.7018C4.89056 14.9274 5.20594 15.239 5.43591 15.6106C5.46092 15.651 5.48436 15.692 5.51416 15.7441L5.5192 15.7529C5.52434 15.7619 5.52946 15.7708 5.53455 15.7796C5.55753 15.8196 5.57972 15.8583 5.5991 15.895C5.80133 16.2778 5.90904 16.7021 5.91638 17.1327C5.91722 17.1818 5.91641 17.2297 5.9153 17.2953L5.90842 17.7029C5.89599 18.4392 5.90229 18.6387 5.95384 18.8038C6.00694 18.9739 6.09563 19.1304 6.21422 19.2633C6.32917 19.3921 6.49622 19.4988 7.13553 19.8672L7.62924 20.1517C8.26659 20.519 8.44199 20.6096 8.61069 20.6446C8.78501 20.6806 8.96469 20.6792 9.1378 20.6403C9.30581 20.6026 9.47993 20.5088 10.1111 20.1309L10.465 19.919C10.5192 19.8865 10.5578 19.8635 10.5982 19.841C10.9805 19.6284 11.4075 19.5101 11.8454 19.496C11.8898 19.4946 11.9339 19.4946 11.9899 19.4946H12.0091C12.0652 19.4946 12.1092 19.4946 12.1536 19.496C12.5918 19.5101 13.021 19.6286 13.4045 19.8424C13.4399 19.8621 13.4742 19.8828 13.5112 19.905L13.8938 20.1347C14.5273 20.515 14.7019 20.6091 14.8707 20.647C15.0455 20.6862 15.2258 20.6876 15.3997 20.6513C15.5685 20.616 15.7444 20.5244 16.3821 20.1543L16.8771 19.8671C17.5097 19.4999 17.6751 19.3935 17.7888 19.2655C17.9069 19.1327 17.9951 18.9764 18.0479 18.8069C18.0983 18.6447 18.104 18.4496 18.0918 17.7245C18.091 17.6787 18.0898 17.6284 18.0886 17.5752C18.0852 17.4376 18.0815 17.2807 18.0837 17.1334C18.0902 16.6941 18.2017 16.262 18.4097 15.8741C18.4589 15.7824 18.5105 15.6945 18.5621 15.6113C18.794 15.2377 19.1122 14.9248 19.4902 14.6994C19.6104 14.6277 19.743 14.5557 19.8578 14.4933C19.9032 14.4686 19.9459 14.4454 19.9839 14.4244C20.6306 14.066 20.8002 13.9616 20.9174 13.8345C21.0382 13.7033 21.1295 13.548 21.1854 13.3782C21.2388 13.2156 21.2474 13.0191 21.2458 12.2878L21.2445 11.7136C21.2428 10.9791 21.2333 10.7823 21.1791 10.6191C21.1232 10.4506 21.0319 10.2957 20.9116 10.1653C20.7958 10.0396 20.6294 9.9366 19.9959 9.58409C19.9923 9.5822 19.9888 9.58028 19.9853 9.57834L19.6191 9.37461C19.5618 9.34272 19.5247 9.32179 19.486 9.29863C19.111 9.07399 18.7943 8.76326 18.5631 8.39098C18.5433 8.35913 18.5222 8.32237 18.5021 8.28729C18.4964 8.27743 18.4908 8.26769 18.4854 8.25824L18.4804 8.24969C18.4526 8.20151 18.4304 8.16312 18.4095 8.12408C18.2025 7.73765 18.0904 7.30671 18.0837 6.86752C18.083 6.82365 18.0833 6.78166 18.0844 6.71343L18.0916 6.28816C18.1039 5.55615 18.0982 5.35974 18.0471 5.19614C17.994 5.02622 17.9053 4.86963 17.7866 4.7366C17.6715 4.60767 17.5044 4.50063 16.8658 4.13259L16.372 3.84803C15.7345 3.48067 15.559 3.38991 15.3903 3.355C15.2168 3.31908 15.0372 3.32065 14.8634 3.35968C14.6958 3.3973 14.5226 3.49056 13.8932 3.86743C13.8867 3.87131 13.8801 3.87509 13.8735 3.87878L13.5341 4.08199C13.4821 4.11314 13.4431 4.13651 13.4029 4.15888C13.0198 4.37188 12.5923 4.48946 12.1553 4.50348C12.1109 4.50491 12.0669 4.5049 12.0109 4.5049H11.9917C11.9361 4.5049 11.8907 4.50491 11.8463 4.50348C11.4082 4.48939 10.9799 4.37115 10.5963 4.15733C10.4743 4.08929 10.3447 4.00998 10.2331 3.94162C10.1877 3.91382 10.1452 3.88784 10.1075 3.86515C9.47373 3.4847 9.29877 3.39022 9.13008 3.35237ZM8.29456 1.88055C8.67811 1.80044 9.07472 1.80266 9.45846 1.88876C9.89416 1.98652 10.2889 2.22393 10.7908 2.52579C10.82 2.54335 10.8496 2.56113 10.8795 2.57911C10.9422 2.61676 10.9978 2.65079 11.0496 2.68258C11.1471 2.74235 11.2316 2.79416 11.3267 2.84714C11.5005 2.94404 11.6948 2.99783 11.8946 3.00426C11.9117 3.00481 11.9317 3.0049 12.0013 3.0049C12.0712 3.0049 12.0899 3.00481 12.1072 3.00425C12.3066 2.99785 12.5005 2.94432 12.674 2.84789C12.6893 2.83934 12.7065 2.82924 12.7654 2.79394L13.1192 2.58208C13.1257 2.57821 13.1322 2.57444 13.1388 2.57077C13.163 2.55627 13.1869 2.54191 13.2106 2.52769C13.7092 2.22864 14.1013 1.99341 14.5348 1.8961C14.9158 1.81057 15.311 1.80679 15.6943 1.88613C16.1298 1.97627 16.5267 2.20537 17.0317 2.4969C17.061 2.51385 17.0908 2.53102 17.1209 2.54838L17.6147 2.83294C17.6437 2.84967 17.6724 2.86617 17.7008 2.88248C18.2097 3.17528 18.6084 3.4046 18.9058 3.7379C19.1666 4.03023 19.3621 4.37485 19.4789 4.7491C19.6114 5.17343 19.6034 5.63098 19.5931 6.21088C19.5925 6.24463 19.5919 6.2788 19.5914 6.3134L19.5842 6.73866C19.5832 6.80075 19.5832 6.82432 19.5835 6.8446C19.5865 7.04359 19.6374 7.23967 19.7318 7.41588C19.7399 7.43106 19.7493 7.44757 19.7842 7.50795C19.7994 7.53429 19.8095 7.55185 19.8166 7.56424C19.8283 7.58463 19.832 7.59102 19.8373 7.59948C19.942 7.76801 20.0857 7.90931 20.2568 8.01184C20.2731 8.02159 20.2919 8.03242 20.3483 8.06379L20.7057 8.26258C20.7092 8.26448 20.7128 8.26641 20.7163 8.26837C20.7466 8.28521 20.7765 8.30182 20.806 8.31822C21.314 8.60031 21.7136 8.82216 22.0144 9.14844C22.2791 9.43553 22.4798 9.77597 22.6028 10.1465C22.7427 10.5681 22.7434 11.0254 22.7443 11.6081C22.7443 11.6417 22.7444 11.6757 22.7445 11.7102L22.7458 12.2844C22.7458 12.319 22.746 12.3531 22.7461 12.3869C22.7478 12.9661 22.7492 13.4244 22.6102 13.847C22.4876 14.2198 22.2867 14.5621 22.0204 14.851C21.7176 15.1796 21.3141 15.4028 20.8011 15.6866C20.7713 15.703 20.7412 15.7197 20.7108 15.7365C20.6494 15.7705 20.5938 15.8007 20.5419 15.8289C20.4404 15.8839 20.3522 15.9318 20.2585 15.9877C20.0869 16.09 19.9421 16.2322 19.8366 16.4023C19.7982 16.4641 19.7631 16.5243 19.7316 16.583C19.6373 16.7588 19.5865 16.9554 19.5835 17.1556C19.5818 17.2726 19.5844 17.3817 19.5874 17.5058C19.5889 17.5659 19.5904 17.6296 19.5916 17.6993C19.5922 17.7336 19.5928 17.7674 19.5934 17.8009C19.6035 18.3751 19.6115 18.8304 19.4801 19.2526C19.364 19.6258 19.1697 19.9697 18.9102 20.2618C18.6155 20.5934 18.2202 20.8225 17.7187 21.113C17.6895 21.1299 17.6599 21.147 17.63 21.1644L17.135 21.4517C17.1049 21.4692 17.0751 21.4865 17.0457 21.5036C16.5408 21.7972 16.1431 22.0284 15.7064 22.1196C15.3214 22.2 14.9246 22.1964 14.5423 22.1106C14.1062 22.0128 13.7119 21.7756 13.2092 21.4733C13.1804 21.456 13.1512 21.4384 13.1217 21.4207L12.7456 21.1949C12.6988 21.1668 12.6858 21.1591 12.6742 21.1526C12.5004 21.0557 12.3051 21.0017 12.1054 20.9952C12.0881 20.9947 12.0694 20.9946 11.9994 20.9946C11.9296 20.9946 11.9108 20.9947 11.8935 20.9952C11.6949 21.0016 11.5012 21.0552 11.3271 21.152C11.3113 21.1608 11.2932 21.1714 11.2355 21.2059L10.8817 21.4178C10.8519 21.4357 10.8224 21.4533 10.7933 21.4708C10.2934 21.7707 9.90026 22.0065 9.46636 22.1039C9.08458 22.1896 8.68925 22.1926 8.30668 22.1134C7.87099 22.0233 7.47424 21.7942 6.96878 21.5024C6.93966 21.4856 6.91018 21.4686 6.88031 21.4514L6.3866 21.1669C6.35642 21.1495 6.32661 21.1323 6.29717 21.1154C5.79025 20.8238 5.39188 20.5947 5.09502 20.262C4.83404 19.9695 4.63878 19.6249 4.52199 19.2508C4.38856 18.8234 4.39665 18.3622 4.40699 17.7723C4.40754 17.7411 4.40809 17.7095 4.40863 17.6775L4.41551 17.27C4.41673 17.1977 4.41691 17.177 4.4166 17.1583C4.41323 16.9608 4.36387 16.768 4.27276 16.5955C4.26674 16.5841 4.26117 16.5744 4.24179 16.5406C4.23535 16.5294 4.22739 16.5155 4.21738 16.498C4.18023 16.4331 4.17018 16.4158 4.16044 16.4C4.05584 16.231 3.91238 16.0893 3.74226 15.9869C3.73006 15.9795 3.71875 15.9732 3.67725 15.9502C3.66771 15.9449 3.65657 15.9387 3.64347 15.9314L3.28513 15.732C3.25532 15.7154 3.22588 15.6991 3.19679 15.6829C2.68684 15.3998 2.28736 15.1779 1.98605 14.8511C1.72049 14.5631 1.52111 14.2224 1.39851 13.8531C1.25749 13.4283 1.2567 12.9685 1.25567 12.3765C1.25563 12.3478 1.25557 12.3187 1.25551 12.2894L1.25423 11.7273C1.25416 11.695 1.25406 11.6631 1.25397 11.6316C1.25224 11.0406 1.25088 10.5788 1.39105 10.1528C1.51371 9.77994 1.71473 9.43737 1.98106 9.14841C2.28411 8.8196 2.68728 8.59657 3.20111 8.31234C3.23042 8.29613 3.26008 8.27972 3.29011 8.26308L3.65167 8.06271C3.66475 8.05546 3.67571 8.04939 3.68499 8.04426C3.72183 8.02386 3.73215 8.01815 3.74321 8.01155C3.91478 7.90925 4.05927 7.76726 4.16484 7.59717C4.1707 7.58773 4.17513 7.58004 4.19035 7.55361C4.19693 7.54219 4.20551 7.52728 4.2171 7.50723C4.25154 7.44761 4.26071 7.43156 4.26876 7.41654C4.36403 7.23887 4.41524 7.04239 4.41824 6.84455C4.41824 6.84455 4.41819 6.83925 4.41778 6.82403C4.4177 6.82137 4.41762 6.81847 4.41754 6.81533C4.41703 6.79732 4.41631 6.77157 4.41578 6.73997L4.40863 6.31531C4.40809 6.28317 4.40754 6.25141 4.40699 6.22002C4.39671 5.63261 4.38868 5.17336 4.52127 4.74732C4.63729 4.3745 4.83125 4.03037 5.09101 3.738C5.3856 3.40643 5.78066 3.17756 6.28184 2.88721C6.30926 2.87133 6.337 2.85526 6.36506 2.83898L6.37615 2.83237L6.8661 2.54837C6.89612 2.53094 6.92611 2.51351 6.95538 2.49649C7.46063 2.20271 7.85779 1.97178 8.29456 1.88055ZM12.0003 8.74996C10.2054 8.74996 8.75032 10.205 8.75032 12C8.75032 13.7949 10.2054 15.25 12.0003 15.25C13.7952 15.25 15.2503 13.7949 15.2503 12C15.2503 10.205 13.7952 8.74996 12.0003 8.74996ZM7.25032 12C7.25032 9.37661 9.37697 7.24996 12.0003 7.24996C14.6237 7.24996 16.7503 9.37661 16.7503 12C16.7503 14.6233 14.6237 16.75 12.0003 16.75C9.37697 16.75 7.25032 14.6233 7.25032 12Z" fill="white"/>
</svg>
