<svg width="24" height="24" viewBox="0 0 24 24" fill="none" xmlns="http://www.w3.org/2000/svg">
<path fill-rule="evenodd" clip-rule="evenodd" d="M10.9269 4.21902C11.2514 4.04478 11.6453 4.06294 11.9523 4.26631L21.5523 10.6253C21.8257 10.8064 21.9929 11.11 21.9999 11.4379C22.0068 11.7657 21.8526 12.0761 21.5871 12.2686L11.9871 19.2296C11.6828 19.4502 11.2805 19.4816 10.9457 19.3108C10.6109 19.14 10.4001 18.7959 10.4001 18.42L10.4001 15.6507C8.71632 15.6997 7.19869 16.4759 5.99993 17.375C5.30763 17.8942 4.75079 18.4333 4.36743 18.8428C4.17644 19.0468 4.03036 19.2167 3.93389 19.3331C3.88571 19.3912 3.85004 19.4358 3.82749 19.4645L3.8036 19.4952L3.79991 19.5C3.54157 19.8439 3.09177 19.9847 2.68368 19.8487C2.27534 19.7126 1.99991 19.3304 1.99991 18.9H2.99991C1.99991 18.9 1.99991 18.8995 1.99991 18.8989L1.99991 18.8977L1.99992 18.8945L1.99997 18.886L2.00029 18.8598C2.00064 18.8383 2.00129 18.809 2.00251 18.7721C2.00494 18.6985 2.00966 18.595 2.01878 18.4654C2.03701 18.2063 2.07294 17.8412 2.14386 17.4005C2.28526 16.5218 2.56832 15.3261 3.13856 14.0634C4.22312 11.662 6.34713 9.03424 10.4001 7.91551L10.4001 5.1C10.4001 4.73174 10.6025 4.39327 10.9269 4.21902ZM4.54036 15.9746C4.62487 15.908 4.71142 15.8414 4.79994 15.775C6.3966 14.5775 8.75632 13.3618 11.5241 13.7077C12.0246 13.7703 12.4001 14.1957 12.4001 14.7V16.4597L19.2453 11.4962L12.4001 6.96189V8.7C12.4001 9.17154 12.0707 9.579 11.6096 9.6778C7.78069 10.4983 5.90836 12.7896 4.9613 14.8866C4.79359 15.2579 4.65494 15.6237 4.54036 15.9746Z" fill="white"/>
</svg>
