<svg width="24" height="24" viewBox="0 0 24 24" fill="none" xmlns="http://www.w3.org/2000/svg">
<path d="M18.123 1C20.2644 1.00026 21.9999 2.73275 22 4.87012V19.1299C21.9999 21.2672 20.2643 22.9997 18.123 23H5.87695C3.7357 22.9997 2.00014 21.2672 2 19.1299V4.87012C2.00005 2.73275 3.73565 1.00026 5.87695 1H18.123ZM5.87695 2.62891C4.63736 2.62916 3.63189 3.63278 3.63184 4.87012V19.1299C3.63197 20.3671 4.63741 21.3699 5.87695 21.3701H18.123C19.3626 21.3699 20.368 20.3671 20.3682 19.1299V4.87012C20.3681 3.63278 19.3626 2.62916 18.123 2.62891H5.87695ZM16.082 12.5088C16.9273 12.5089 17.6123 13.1934 17.6123 14.0371V17.0928C17.6122 17.9364 16.9272 18.62 16.082 18.6201H7.91797C7.07286 18.6199 6.38781 17.9363 6.3877 17.0928V14.0371C6.3877 13.1935 7.07279 12.509 7.91797 12.5088H16.082ZM10.7246 8.94434C11.1472 8.94439 11.4901 9.28626 11.4902 9.70801C11.4902 10.1299 11.1472 10.4716 10.7246 10.4717H7.15332C6.73065 10.4717 6.3877 10.1299 6.3877 9.70801C6.38783 9.28623 6.73073 8.94434 7.15332 8.94434H10.7246ZM13.2754 5.88867C13.698 5.88867 14.0409 6.23058 14.041 6.65234C14.041 7.07423 13.6981 7.41699 13.2754 7.41699H7.15332C6.73065 7.41699 6.3877 7.07423 6.3877 6.65234C6.38784 6.23058 6.73073 5.88867 7.15332 5.88867H13.2754Z" fill="white"/>
</svg>
