<svg width="24" height="24" viewBox="0 0 24 24" fill="none" xmlns="http://www.w3.org/2000/svg">
<path d="M12.1918 0C14.9367 0.01814 17.2332 0.724232 19.0179 2.09668C20.6955 3.38709 21.8761 5.22654 22.5277 7.56445L20.4886 8.13281C19.3849 4.17358 16.5911 2.14916 12.1849 2.11719C9.27577 2.13793 7.07625 3.05279 5.64587 4.83496C4.30621 6.50392 3.61335 8.91443 3.58826 11.999C3.61418 15.0845 4.3071 17.4949 5.64587 19.1631C7.07629 20.9452 9.27574 21.8601 12.1849 21.8809C14.8072 21.8619 16.5433 21.2509 17.9867 19.8369C19.6338 18.2234 19.6036 16.244 19.0765 15.04C18.7663 14.3304 18.2024 13.7388 17.4427 13.291C17.2519 14.6409 16.8222 15.7371 16.1586 16.5625C15.2736 17.6643 14.0185 18.2669 12.4301 18.3525C11.2279 18.4173 10.0691 18.1334 9.17029 17.5518C8.10717 16.8638 7.4849 15.8107 7.41833 14.5869C7.35351 13.3969 7.82535 12.3028 8.74646 11.5059C9.62719 10.7444 10.8662 10.297 12.3295 10.2148C13.4079 10.1543 14.4165 10.2019 15.349 10.3574C15.2254 9.61527 14.9752 9.02672 14.6019 8.60156C14.0885 8.01642 13.2934 7.71788 12.2416 7.71094H12.2123C11.3679 7.71101 10.2207 7.94215 9.48962 9.0293L7.73279 7.84766C8.71117 6.39308 10.3014 5.59277 12.2123 5.59277H12.2552C15.4504 5.61274 17.3531 7.56744 17.5424 10.9805C17.651 11.0263 17.7574 11.0738 17.8627 11.123C19.3535 11.824 20.4439 12.8856 21.016 14.1924C21.8127 16.0142 21.8857 18.9827 19.4672 21.3506C17.6193 23.1604 15.375 23.9774 12.1918 23.999H12.1849L12.1859 24H12.1791C8.59825 23.9757 5.84508 22.7954 3.99548 20.4902C2.34904 18.4392 1.50056 15.5852 1.47205 12.0088V11.9912C1.50061 8.41398 2.34904 5.56071 3.99548 3.50977C5.84419 1.20464 8.59817 0.0241891 12.1781 0H12.1918ZM13.1888 12.3086C12.9469 12.3086 12.7012 12.3154 12.4506 12.3301C10.614 12.4338 9.46977 13.2748 9.53455 14.4727C9.60284 15.7275 10.9867 16.3108 12.3168 16.2393C13.5414 16.1735 15.1356 15.6975 15.4027 12.5293C14.7269 12.385 13.9839 12.3086 13.1888 12.3086Z" fill="white"/>
</svg>
