<svg width="24" height="24" viewBox="0 0 24 24" fill="none" xmlns="http://www.w3.org/2000/svg">
<path d="M17.25 22.5H6.75C3.8625 22.5 1.5 20.1375 1.5 17.25V6.75C1.5 3.8625 3.8625 1.5 6.75 1.5H12.875H17.25C20.1375 1.5 22.5 3.8625 22.5 6.75V17.25C22.5 20.1375 20.1375 22.5 17.25 22.5ZM3.25 8.5V17.25C3.25 19.175 4.825 20.75 6.75 20.75H17.25C19.175 20.75 20.75 19.175 20.75 17.25V8.5H3.25ZM16.8125 6.75H20.75C20.75 4.825 19.175 3.25 17.25 3.25H14.5375L16.8125 6.75ZM10.6875 6.75H14.7125L12.35 3.25H8.4125L10.6875 6.75ZM3.25 6.75H8.5875L6.3125 3.25C4.5625 3.5125 3.25 5 3.25 6.75ZM10.25 18.125C9.8125 18.125 9.375 17.6875 9.375 17.25V12C9.375 11.65 9.55 11.3875 9.8125 11.2125C10.075 11.0375 10.425 11.0375 10.6875 11.2125L15.0625 13.8375C15.325 14.0125 15.5 14.275 15.5 14.625C15.5 14.975 15.325 15.2375 15.0625 15.4125L10.6875 18.0375C10.6 18.125 10.425 18.125 10.25 18.125Z" fill="white"/>
</svg>
