<svg width="127" height="40" viewBox="0 0 127 40" fill="none" xmlns="http://www.w3.org/2000/svg">
<g clip-path="url(#clip0_ztor)">
<path fill-rule="evenodd" clip-rule="evenodd" d="M69.6141 9.18439C77.8075 8.19802 85.1355 11.2415 88.4715 17.0164C89.7004 19.1441 90.1804 20.9512 90.2859 23.8592C90.4188 27.5168 89.851 29.7697 88.077 32.6229C87.2101 34.0166 84.8556 36.2817 83.2772 37.2401C78.2099 40.3163 70.4784 40.8853 64.5086 38.6219C60.9166 37.2599 57.8756 34.5658 56.2244 31.2811C55.2124 29.2673 54.7442 27.1183 54.7322 24.4383C54.7205 21.8506 54.9531 20.5892 55.8094 18.5965C57.2708 15.1958 60.3247 12.2554 64.0135 10.6981C65.5383 10.0545 68.0709 9.37025 69.6141 9.18439ZM119.457 28.9813C121.942 28.6173 124.231 29.6624 125.456 31.7215C125.939 32.5333 126 32.7972 126 34.0858C126 35.2801 125.921 35.6863 125.551 36.3865C124.278 38.7945 121.239 39.9664 118.512 39.1014C117.323 38.7241 115.8 37.3928 115.269 36.2654C114.768 35.2004 114.675 33.3112 115.078 32.3797C115.832 30.6335 117.614 29.251 119.457 28.9813ZM109.013 10.0828C110.392 9.58893 112.29 8.61585 112.583 8.83283C112.875 9.05028 113.127 10.999 113.127 11.5545C113.127 12.1097 113.172 13.2419 113.127 14.4949C113.082 15.7478 112.993 15.9594 112.851 16.2117C112.709 16.4641 112.416 16.6012 112.04 16.7332C111.664 16.8652 110.945 17.1515 109.95 17.5242C108.955 17.8971 108.612 17.9197 107.342 18.4666C106.071 19.0135 104.85 19.684 104.123 20.1707C103.396 20.6576 103.672 22.1324 103.573 29.9578C103.516 34.4625 103.4 38.2851 103.314 38.452C103.028 39.0106 102.51 39.0867 99.0115 39.0867H96.117C95.7452 39.0867 95.3921 38.9226 95.1512 38.6375C94.774 38.1913 94.7713 38.0878 94.7713 24.5828C94.7713 11.0811 94.66 10.529 95.0369 10.0828C95.2544 9.82534 95.6448 9.57322 96.0027 9.57795C96.0788 9.57899 96.1552 9.58865 96.2313 9.58869L99.3123 9.53888C101.226 9.58809 102.237 9.44569 102.312 9.58869C102.357 9.67285 102.907 10.8663 103.383 11.5545C103.398 11.5767 103.413 11.5985 103.429 11.6199C103.86 12.2343 104.654 12.1314 105.355 11.8641L106.063 11.5545L109.013 10.0828ZM15.6356 10.0203C23.8355 10.0203 29.277 10.0841 29.5604 10.1844C30.0739 10.3662 30.3212 10.9796 30.1453 11.6326C30.0832 11.8626 27.8643 14.7614 25.2147 18.074C22.5652 21.3865 18.9843 25.8628 17.2567 28.0213L15.7791 29.867C15.1052 30.7095 15.6929 31.9633 16.7674 31.9754L21.8455 32.0311C26.0975 32.078 29.7207 32.1825 29.8963 32.2625C30.4415 32.5117 30.6188 33.5224 30.5545 36.0145C30.4966 38.2566 30.4712 38.3926 30.0604 38.702C29.6429 39.016 29.123 39.0272 15.2527 39.0272H1.38166C1.05759 39.0271 0.745503 38.904 0.507632 38.6824L0.427554 38.6082C-0.11101 38.1069 -0.135048 37.7482 0.323062 37.0653C0.512097 36.7834 4.18332 32.176 8.48224 26.827L14.6287 19.1795C15.3047 18.3379 14.7184 17.0824 13.6434 17.0692L9.24298 17.0164C2.41415 16.9338 2.17454 16.9187 1.80744 16.577C1.46397 16.2569 1.42762 16.0168 1.42267 14.0184C1.41461 10.7219 1.41378 10.7304 1.81037 10.3611C2.17032 10.026 2.42145 10.0203 15.6356 10.0203ZM41.6229 0.00372729C46.0834 0.0513159 45.6903 -0.463253 45.7596 5.41779L45.7986 8.74006C45.8072 9.44949 46.3809 10.0203 47.0858 10.0203H49.6444C51.7211 10.0349 51.9214 10.2305 51.9363 12.2586V15.5672C51.9363 15.9619 51.7577 16.335 51.451 16.5809L51.4227 16.6043C50.9324 16.9969 50.7889 17.0164 48.3572 17.0164H47.0887C46.3802 17.0164 45.805 17.5923 45.8016 18.3055L45.7567 27.6951L45.7078 37.8309C45.7062 38.1736 45.5448 38.4956 45.2723 38.701C44.8806 38.9962 44.5133 39.0272 41.3983 39.0272C38.2832 39.0272 37.9159 38.9961 37.5242 38.701C37.2517 38.4955 37.0903 38.1736 37.0887 37.8309L37.0418 27.6951L36.9969 18.1102C36.9941 17.505 36.5053 17.0164 35.9041 17.0164C35.3064 17.0164 34.6128 16.9292 34.3631 16.8231C33.6162 16.5062 33.4846 15.9159 33.5496 13.1805C33.6068 10.7826 33.6282 10.6571 34.0418 10.3455C34.3739 10.0955 34.768 10.0203 35.7371 10.0203C36.4344 10.0203 36.9998 9.45074 36.9998 8.74884V5.69416C36.9998 1.00179 37.0925 0.420226 37.8846 0.141423C38.1627 0.0436819 39.7811 -0.0158918 41.6229 0.00372729ZM74.6551 16.5945C70.0244 15.4717 65.1001 18.2116 63.9578 22.5467C63.6786 23.6068 63.6732 25.6442 63.9471 26.6033C64.7933 29.565 67.8994 32.1035 71.2713 32.5897C75.6616 33.2223 80.1626 30.4037 81.1531 26.4012C81.4178 25.3311 81.3934 23.5742 81.1004 22.5613C80.2528 19.6341 77.7917 17.3553 74.6551 16.5945Z" fill="#D6D5CB"/>
</g>
<defs>
<clipPath id="clip0_ztor">
<rect width="127" height="40" fill="white"/>
</clipPath>
</defs>
</svg>
