<svg width="24" height="24" viewBox="0 0 24 24" fill="none" xmlns="http://www.w3.org/2000/svg">
<g clip-path="url(#clip0_891_2623)">
<path d="M12.0002 0.759995C13.5513 0.760024 15.0128 1.0525 16.384 1.63695C17.7551 2.22141 18.9468 3.03073 19.9583 4.04222C20.9697 5.05377 21.7791 6.24527 22.3635 7.61644C22.948 8.98768 23.2405 10.4492 23.2405 12.0002C23.2404 13.5513 22.948 15.0128 22.3635 16.384C21.7791 17.7552 20.9698 18.9467 19.9583 19.9582C18.9467 20.9698 17.7552 21.779 16.384 22.3635C15.0128 22.948 13.5513 23.2404 12.0002 23.2405C10.4492 23.2405 8.9877 22.948 7.61646 22.3635C6.24528 21.7791 5.05379 20.9697 4.04224 19.9582C3.03075 18.9467 2.22143 17.7551 1.63696 16.384C1.05251 15.0128 0.760039 13.5513 0.76001 12.0002C0.76001 10.4491 1.05248 8.98772 1.63696 7.61644C2.22144 6.24518 3.03065 5.05381 4.04224 4.04222C5.05382 3.03063 6.24519 2.22143 7.61646 1.63695C8.98773 1.05247 10.4491 0.759995 12.0002 0.759995ZM17.4397 6.5598C17.2375 6.38016 17.0355 6.31272 16.7883 6.38011L10.1116 8.29124C9.66207 8.42613 9.27975 8.65041 8.96509 8.96507C8.65042 9.30221 8.42615 9.66206 8.29126 10.1116L6.38013 16.7883C6.31273 17.0355 6.35772 17.2599 6.55981 17.4397C6.76213 17.6195 6.96488 17.6878 7.21216 17.6203L13.8879 15.7092C14.3375 15.5743 14.7197 15.3491 15.0344 15.0344C15.3491 14.6972 15.5744 14.3375 15.7092 13.8879L17.6204 7.21214C17.6878 6.96486 17.6195 6.73964 17.4397 6.5598ZM12.0002 10.0217C12.5621 10.0218 13.0117 10.2246 13.4163 10.6067C13.8207 10.9888 14.0002 11.4608 14.0002 12.0002C14.0002 12.5621 13.7984 13.0117 13.4163 13.4162C13.0342 13.8208 12.5621 14.0011 12.0002 14.0012C11.4608 14.0012 10.9888 13.7982 10.6067 13.4162C10.2246 13.0117 10.0218 12.5621 10.0217 12.0002C10.0217 11.4607 10.2245 10.9888 10.6067 10.6067C10.9888 10.2245 11.4607 10.0217 12.0002 10.0217Z" fill="white"/>
</g>
<defs>
<clipPath id="clip0_891_2623">
<rect width="24" height="24" fill="white"/>
</clipPath>
</defs>
</svg>
