<svg width="24" height="24" viewBox="0 0 24 24" fill="none" xmlns="http://www.w3.org/2000/svg">
<g clip-path="url(#clip0_891_2616)">
<path opacity="0.99" d="M21.5703 16.1795C22.9125 16.1795 24.0008 17.1873 24.001 18.4305C24.001 19.6738 22.9126 20.6824 21.5703 20.6824C20.2282 20.6822 19.1406 19.6737 19.1406 18.4305C19.1408 17.1874 20.2283 16.1797 21.5703 16.1795ZM16.79 3.2C17.2075 3.2 17.5457 3.57085 17.5459 4.0291C17.5459 4.19703 17.5002 4.35271 17.4219 4.4832L17.3271 4.61308L15.3057 7.36113L9.61133 15.1062C9.59544 15.1267 9.5792 15.147 9.56445 15.1697C9.48391 15.2923 9.43653 15.4421 9.43652 15.6043C9.43652 16.0173 9.74063 16.3514 10.1162 16.3514H17.0312V16.3523C17.4146 16.3526 17.7256 16.6942 17.7256 17.115V19.8074C17.7255 20.2281 17.4145 20.5698 17.0312 20.5701H1.68066C1.30519 20.57 1.00007 20.235 1 19.8221C1 19.6599 1.04646 19.51 1.12695 19.3875L1.1748 19.323L3.35938 16.3514L9.54004 7.94609C9.54109 7.9443 9.54261 7.94314 9.54297 7.94218C9.57928 7.88318 9.60059 7.81134 9.60059 7.73418C9.60058 7.52994 9.44992 7.36308 9.2627 7.36308H2.45508C2.07156 7.36308 1.75977 7.02135 1.75977 6.60039V3.96269C1.75977 3.54173 2.07156 3.2 2.45508 3.2H16.79Z" fill="white"/>
</g>
<defs>
<clipPath id="clip0_891_2616">
<rect width="24" height="24" fill="white"/>
</clipPath>
</defs>
</svg>
