<svg width="24px" height="24px" viewBox="0 0 24 24" xmlns="http://www.w3.org/2000/svg">
  <g fill="none" class="nc-icon-wrapper">
    <path d="M1 9.99348C1.00003 11.624 1.44063 13.1472 2.19626 14.4646C2.38601 14.9255 2.27792 15.4945 2.15636 15.9568C1.97097 16.6619 1.62172 17.3398 1.21379 17.7485C1.0104 17.9522 0.945503 18.2561 1.04846 18.525C1.1515 18.7939 1.40329 18.9771 1.69077 18.9927C2.51536 19.0372 3.42875 18.8742 4.22582 18.6419C4.83702 18.4638 5.42053 18.2318 5.88387 17.9889C7.15411 18.645 8.57122 18.9955 10.0009 18.9955C14.9719 18.9954 18.9997 14.9668 19 9.99728C19 5.05316 15.0118 1.04141 10.0779 1C5.1088 1.00007 1 5.02371 1 9.99348Z" fill="url(#msgs-grad-0)" mask="url(#msgs-mask)"/>
    <path d="M1 9.99348C1.00003 11.624 1.44063 13.1472 2.19626 14.4646C2.38601 14.9255 2.27792 15.4945 2.15636 15.9568C1.97097 16.6619 1.62172 17.3398 1.21379 17.7485C1.0104 17.9522 0.945503 18.2561 1.04846 18.525C1.1515 18.7939 1.40329 18.9771 1.69077 18.9927C2.51536 19.0372 3.42875 18.8742 4.22582 18.6419C4.83702 18.4638 5.42053 18.2318 5.88387 17.9889C7.15411 18.645 8.57122 18.9955 10.0009 18.9955C14.9719 18.9954 18.9997 14.9668 19 9.99728C19 5.05316 15.0118 1.04141 10.0779 1C5.1088 1.00007 1 5.02371 1 9.99348Z" fill="url(#msgs-grad-0)" filter="url(#msgs-filter)" clip-path="url(#msgs-clip)"/>
    <path d="M22.75 14.4971C22.75 15.8083 22.3947 17.0325 21.7881 18.0918C21.4381 18.7473 22.0797 20.0133 22.5303 20.4648C22.7394 20.6742 22.8061 20.9874 22.7002 21.2637C22.5942 21.5399 22.3354 21.7282 22.04 21.7441C21.3651 21.7806 20.6264 21.6475 19.9893 21.4619C19.536 21.3299 19.098 21.1595 18.7354 20.9775C17.7323 21.4798 16.6207 21.7461 15.499 21.7461C11.4948 21.7459 8.2502 18.5019 8.25 14.5C8.25 10.498 11.4977 7.25 15.501 7.25C19.5037 7.25018 22.75 10.4949 22.75 14.4971Z" fill="url(#msgs-grad-1)"/>
    <path d="M22 14.4971C22 11.0214 19.2686 8.18279 15.835 8.00879L15.501 8C11.9118 8 9 10.9122 9 14.5C9.0002 18.0874 11.9088 20.9959 15.499 20.9961V21.7461C11.4948 21.7459 8.2502 18.5019 8.25 14.5C8.25 10.498 11.4977 7.25 15.501 7.25C19.5037 7.25018 22.75 10.4949 22.75 14.4971C22.75 15.8083 22.3947 17.0325 21.7881 18.0918C21.4381 18.7473 22.0797 20.0133 22.5303 20.4648C22.7394 20.6742 22.8061 20.9874 22.7002 21.2637C22.5942 21.5399 22.3354 21.7282 22.04 21.7441C21.3651 21.7806 20.6264 21.6475 19.9893 21.4619C19.536 21.3299 19.098 21.1595 18.7354 20.9775C17.7323 21.4798 16.6207 21.7461 15.499 21.7461V20.9961C16.5025 20.9961 17.4992 20.7574 18.3994 20.3066C18.6109 20.2007 18.8599 20.2016 19.0713 20.3076C19.389 20.467 19.7847 20.6214 20.1992 20.7422C20.7163 20.8928 21.2777 20.9965 21.7852 21L22 20.9951H21.999C21.683 20.6784 21.3597 20.1509 21.1582 19.6211C21.0549 19.3495 20.9707 19.0451 20.9453 18.7373C20.9203 18.4343 20.9483 18.0728 21.127 17.7383L21.1377 17.7188C21.6146 16.886 21.9171 15.9424 21.9854 14.9336L22 14.4971Z" fill="url(#msgs-grad-2)"/>
    <defs>
      <linearGradient id="msgs-grad-0" x1="10" y1="1" x2="10" y2="19" gradientUnits="userSpaceOnUse">
        <stop stop-color="rgba(255, 163, 63, 1)"/>
        <stop offset="1" stop-color="rgba(255, 245, 153, 1)"/>
      </linearGradient>
      <linearGradient id="msgs-grad-1" x1="15.5" y1="7.25" x2="15.5" y2="21.75" gradientUnits="userSpaceOnUse">
        <stop stop-color="rgba(227, 227, 229, 0.6)"/>
        <stop offset="1" stop-color="rgba(187, 187, 192, 0.6)"/>
      </linearGradient>
      <linearGradient id="msgs-grad-2" x1="15.5" y1="7.25" x2="15.5" y2="15.647" gradientUnits="userSpaceOnUse">
        <stop stop-color="rgba(255, 255, 255, 1)"/>
        <stop offset="1" stop-color="rgba(255, 255, 255, 1)" stop-opacity="0"/>
      </linearGradient>
      <filter id="msgs-filter" x="-100%" y="-100%" width="400%" height="400%" filterUnits="objectBoundingBox" primitiveUnits="userSpaceOnUse">
        <feGaussianBlur stdDeviation="2" x="0%" y="0%" width="100%" height="100%" in="SourceGraphic" edgeMode="none" result="blur"/>
      </filter>
      <clipPath id="msgs-clip">
        <path d="M22.75 14.4971C22.75 15.8083 22.3947 17.0325 21.7881 18.0918C21.4381 18.7473 22.0797 20.0133 22.5303 20.4648C22.7394 20.6742 22.8061 20.9874 22.7002 21.2637C22.5942 21.5399 22.3354 21.7282 22.04 21.7441C21.3651 21.7806 20.6264 21.6475 19.9893 21.4619C19.536 21.3299 19.098 21.1595 18.7354 20.9775C17.7323 21.4798 16.6207 21.7461 15.499 21.7461C11.4948 21.7459 8.2502 18.5019 8.25 14.5C8.25 10.498 11.4977 7.25 15.501 7.25C19.5037 7.25018 22.75 10.4949 22.75 14.4971Z" fill="url(#msgs-grad-1)"/>
      </clipPath>
      <mask id="msgs-mask">
        <rect width="100%" height="100%" fill="#FFF"/>
        <path d="M22.75 14.4971C22.75 15.8083 22.3947 17.0325 21.7881 18.0918C21.4381 18.7473 22.0797 20.0133 22.5303 20.4648C22.7394 20.6742 22.8061 20.9874 22.7002 21.2637C22.5942 21.5399 22.3354 21.7282 22.04 21.7441C21.3651 21.7806 20.6264 21.6475 19.9893 21.4619C19.536 21.3299 19.098 21.1595 18.7354 20.9775C17.7323 21.4798 16.6207 21.7461 15.499 21.7461C11.4948 21.7459 8.2502 18.5019 8.25 14.5C8.25 10.498 11.4977 7.25 15.501 7.25C19.5037 7.25018 22.75 10.4949 22.75 14.4971Z" fill="#000"/>
      </mask>
    </defs>
  </g>
</svg>
